<?xml version="1.0" encoding="utf-8"?>
<!-- Generator: Adobe Illustrator 30.5.1, SVG Export Plug-In . SVG Version: 9.03 Build 0)  -->
<svg version="1.1" id="Layer_1" xmlns="http://www.w3.org/2000/svg" xmlns:xlink="http://www.w3.org/1999/xlink" x="0px" y="0px"
	 viewBox="0 0 1018.5 262.9" style="enable-background:new 0 0 1018.5 262.9;" xml:space="preserve">
<style type="text/css">
	.st0{fill:#FFFFFF;}
</style>
<g>
	<g>
		<path class="st0" d="M280.9,151.5l-2.2,9.6c1.1-1.6,2.2-3.4,3.2-5.1L280.9,151.5z M316.2,92.2c-5.5-19.7-23.1-33.6-43.4-34.5
			C265.6,34.8,244.2,19,220.1,19c-5,0-10,0.7-14.8,2c-2.9,0.8-5.6,1.8-8.3,3.1C183,8.9,163.2,0,142,0c-6.8,0-13.5,0.9-20.1,2.8
			c-27.8,7.7-47.9,30-53.3,57.1c-2.9,0.3-5.8,0.9-8.7,1.7C31.1,69.5,14,99,21.1,127.8c-6.1,4.1-11.2,9.5-14.9,16.1
			c-6.2,11-7.8,23.7-4.4,35.9c5.7,20.4,24.4,34.6,45.5,34.6c3.7,0,7.5-0.5,11.1-1.3c11.2,8,24.7,12.4,38.4,12.4c5.5,0,11-0.7,16.3-2
			c0.5-0.1,1-0.2,1.5-0.4c5-1.4,9.8-3.4,14.3-5.9c-2.6-5-4.4-10.5-5.5-16.4c-0.7-4-1-8.1-1-12.5c0-11.9,2.6-22.4,7.7-31.6
			c5.1-9.1,12.2-16.3,21.2-21.6c9-5.2,19.3-7.9,31-7.9c13,0,23.2,2.5,30.6,7.6l-4.5,26.3c-3.2-1.5-6.5-2.7-10-3.4
			c-3.5-0.7-6.8-1.1-9.8-1.1c-9,0-16.1,2.7-21.3,8.1c-5.2,5.4-7.8,12.9-7.8,22.5c0,4.6,0.6,8.7,2,12.3c1.2,3.5,3.1,6.4,5.6,9
			c2.8,2.8,6.1,4.9,10.1,6.1c1.2-0.3,2.4-0.6,3.7-0.9c14.8-4.1,27.7-12.5,37.3-24.1c2.1,0.2,4.3,0.3,6.4,0.3c4.5,0,9-0.5,13.4-1.4
			l5.3-19.2l10.9-39.6h53.6l1,3.5c1.2-1.6,2.3-3.3,3.3-5c2.7-4.9,4.6-10,5.5-15.4C318.4,106,318.1,99,316.2,92.2L316.2,92.2z
			 M241.1,112.8L224.5,173c-0.4,0-0.7,0-1.1,0l7.8-46l-8.9-6.1c-10.2-7-23.7-10.6-40.1-10.6c-14.7,0-28,3.4-39.5,10.1
			c-11.6,6.8-20.8,16.1-27.4,27.9c-6.5,11.7-9.8,25.1-9.8,39.8c0,6.7,0.7,13.1,2.1,19.1c-17,3.8-34.2-1.8-45.8-13.5
			c-2,1.1-4.1,2-6.3,2.6c-16.1,4.5-32.8-5-37.3-21.1c-4.5-16.1,5-32.9,21.1-37.4c1.5-0.4,3-0.7,4.5-0.9c-2.6-3.6-4.6-7.6-5.8-12.1
			c-5.7-20.4,6.2-41.5,26.6-47.2C71.1,76,77.8,76,84,77.6C82.8,51.2,99.8,26.4,126.4,19c26.6-7.4,53.9,5,66.5,28.2
			c4.5-4.6,10.3-8.1,16.9-10c20.4-5.7,41.5,6.2,47.2,26.6c1.2,4.5,1.6,9,1.2,13.3c1.4-0.6,2.8-1.2,4.3-1.6
			c16.1-4.5,32.9,4.9,37.3,21.1c1.5,5.4,1.5,10.9,0.1,16L241.1,112.8L241.1,112.8z M209.2,72.4l-6.1,6.9c-1.5-1.1-3.1-1.9-4.8-2.4
			l1.9-9.1c0.2-0.9-0.4-1.7-1.2-1.9c-0.9-0.2-1.7,0.4-1.9,1.2l-1.9,9c-1.8-0.2-3.6-0.1-5.4,0.3l-2.9-8.8c-0.3-0.8-1.2-1.3-2-1
			c-0.8,0.3-1.3,1.2-1,2l2.9,8.8c-0.2,0.1-0.5,0.2-0.7,0.3c-1.4,0.7-2.7,1.6-3.8,2.7l-6.9-6.1c-0.7-0.6-1.7-0.5-2.2,0.1
			c-0.6,0.7-0.5,1.7,0.1,2.2l6.9,6.1c-1.1,1.5-1.9,3.1-2.4,4.8l-9-1.9c-0.9-0.2-1.7,0.4-1.9,1.2s0.4,1.7,1.2,1.9l9.1,1.9
			c-0.1,0.6-0.1,1.1-0.1,1.7c0,0.9,0.7,1.6,1.6,1.6c0,0,0.1,0,0.1,0c0.8,0,1.5-0.7,1.5-1.6c0-5.1,2.8-9.6,7.3-11.9
			c5.8-2.9,12.7-1.2,16.6,3.9c0.5,0.7,1.5,0.9,2.2,0.3c0.7-0.5,0.9-1.5,0.3-2.2c-0.4-0.5-0.8-0.9-1.1-1.3l6.1-6.9
			c0.6-0.7,0.5-1.7-0.1-2.2C210.7,71.7,209.7,71.8,209.2,72.4L209.2,72.4z M125,95.8l-6.1,6.9c-1.5-1.1-3.1-1.9-4.8-2.4l1.9-9.1
			c0.2-0.9-0.4-1.7-1.2-1.9c-0.9-0.2-1.7,0.4-1.9,1.2l-1.9,9c-1.8-0.2-3.6-0.1-5.4,0.3l-2.9-8.8c-0.3-0.8-1.2-1.3-2-1
			c-0.8,0.3-1.3,1.2-1,2l2.9,8.8c-0.2,0.1-0.5,0.2-0.7,0.3c-1.4,0.7-2.7,1.6-3.8,2.6l-6.9-6.1c-0.7-0.6-1.7-0.5-2.2,0.1
			c-0.6,0.7-0.5,1.7,0.1,2.2l6.9,6.1c-1.1,1.5-1.9,3.1-2.4,4.8l-9-1.9c-0.9-0.2-1.7,0.4-1.9,1.2c-0.2,0.9,0.4,1.7,1.2,1.9l9.1,1.9
			c-0.1,0.6-0.1,1.1-0.1,1.7c0,0.9,0.7,1.6,1.6,1.6h0.1c0.8,0,1.5-0.7,1.5-1.6c0-5.1,2.8-9.6,7.3-11.9c5.8-2.9,12.7-1.2,16.6,3.9
			c0.5,0.7,1.5,0.9,2.2,0.3c0.7-0.5,0.8-1.5,0.3-2.2c-0.4-0.5-0.8-0.9-1.1-1.3l6.2-6.9c0.6-0.6,0.5-1.7-0.1-2.2
			C126.6,95.1,125.6,95.2,125,95.8L125,95.8z"/>
		<path class="st0" d="M103.2,104.2c-4.5,2.3-7.3,6.8-7.3,11.9c0,0.8-0.7,1.5-1.5,1.6h-0.1c-0.9,0-1.6-0.7-1.6-1.6
			c0-0.6,0.1-1.1,0.1-1.7l-9.1-1.9c-0.9-0.2-1.4-1-1.2-1.9c0.2-0.9,1-1.4,1.9-1.2l9,1.9c0.5-1.8,1.4-3.4,2.4-4.8l-6.9-6.1
			c-0.7-0.6-0.7-1.6-0.1-2.2c0.6-0.7,1.6-0.7,2.2-0.1L98,104c1.1-1,2.4-1.9,3.8-2.6c0.2-0.1,0.5-0.2,0.7-0.3l-2.9-8.8
			c-0.3-0.8,0.2-1.7,1-2c0.8-0.3,1.7,0.2,2,1l2.9,8.8c1.8-0.4,3.6-0.5,5.4-0.3l1.9-9c0.2-0.9,1-1.4,1.9-1.2c0.9,0.2,1.4,1,1.2,1.9
			l-1.9,9.1c1.7,0.5,3.3,1.3,4.8,2.4l6.1-6.9c0.6-0.7,1.6-0.7,2.2-0.1c0.7,0.6,0.7,1.6,0.1,2.2l-6.2,6.9c0.4,0.4,0.8,0.8,1.1,1.3
			c0.5,0.7,0.4,1.7-0.3,2.2c-0.7,0.5-1.7,0.4-2.2-0.3C116,102.9,109,101.3,103.2,104.2L103.2,104.2z"/>
		<path class="st0" d="M166.7,87.2c0.2-0.9,1-1.4,1.9-1.2l9,1.9c0.5-1.8,1.4-3.4,2.4-4.8l-6.9-6.1c-0.6-0.6-0.7-1.6-0.1-2.2
			c0.6-0.6,1.6-0.7,2.2-0.1l6.9,6.1c1.1-1,2.4-1.9,3.8-2.7c0.2-0.1,0.5-0.2,0.7-0.3l-2.9-8.8c-0.3-0.8,0.2-1.7,1-2
			c0.8-0.3,1.7,0.2,2,1l2.9,8.8c1.8-0.4,3.6-0.5,5.4-0.3l1.9-9c0.2-0.9,1-1.4,1.9-1.2c0.9,0.2,1.4,1,1.2,1.9l-1.9,9.1
			c1.7,0.5,3.3,1.3,4.8,2.4l6.1-6.9c0.6-0.7,1.6-0.7,2.2-0.1c0.6,0.6,0.7,1.6,0.1,2.2l-6.1,6.9c0.4,0.4,0.8,0.8,1.1,1.3
			c0.5,0.7,0.4,1.7-0.3,2.2c-0.7,0.5-1.7,0.4-2.2-0.3c-3.9-5.1-10.8-6.8-16.6-3.9c-4.5,2.3-7.3,6.8-7.3,11.9c0,0.9-0.6,1.5-1.5,1.6
			c0,0-0.1,0-0.1,0c-0.9,0-1.6-0.7-1.6-1.6c0-0.6,0.1-1.1,0.1-1.7l-9.1-1.9C167.1,88.8,166.5,88,166.7,87.2L166.7,87.2z"/>
		<path class="st0" d="M231.2,127l-7.8,46c-4.4-0.1-8.8-0.8-13-2c-7.4,12.5-19.3,22.2-34.4,26.4c-4.9,1.4-9.9,2.1-14.8,2.1
			c-1.3-3.6-2-7.7-2-12.3c0-9.6,2.6-17.1,7.8-22.5c5.2-5.4,12.3-8.1,21.3-8.1c3.1,0,6.4,0.4,9.8,1.1c3.5,0.7,6.8,1.8,10,3.4
			l4.5-26.3c-7.4-5.1-17.6-7.6-30.6-7.6c-11.7,0-22,2.6-31,7.9c-9,5.2-16,12.4-21.2,21.6c-5.1,9.1-7.7,19.7-7.7,31.6
			c0,4.4,0.4,8.5,1,12.5c-4,2.6-8.5,4.6-13.3,6c-0.9,0.2-1.7,0.5-2.5,0.6c-1.4-6-2.1-12.4-2.1-19.1c0-14.8,3.3-28.2,9.8-39.8
			c6.6-11.8,15.8-21.2,27.4-27.9c11.6-6.7,24.9-10.1,39.5-10.1c16.4,0,29.9,3.5,40.1,10.6L231.2,127L231.2,127z"/>
		<path class="st0" d="M300,112.8c-1.8,6.8-6,12.8-11.8,16.9H254L243,169.2c-1.8,0.8-3.7,1.4-5.6,1.9c-4.3,1.2-8.7,1.8-12.9,1.8
			l16.6-60.2L300,112.8L300,112.8z"/>
		<g>
			<path class="st0" d="M127.4,97.9l-6.2,6.9c0.4,0.4,0.8,0.8,1.1,1.3c0.5,0.7,0.4,1.7-0.3,2.2c-0.7,0.5-1.7,0.4-2.2-0.3
				c-3.9-5.2-10.9-6.8-16.6-3.9c-4.5,2.3-7.3,6.8-7.3,11.9c0,0.8-0.7,1.5-1.5,1.6h-0.1c-0.9,0-1.6-0.7-1.6-1.6
				c0-0.6,0.1-1.1,0.1-1.7l-9.1-1.9c-0.9-0.2-1.4-1-1.2-1.9c0.2-0.9,1-1.4,1.9-1.2l9,1.9c0.5-1.8,1.4-3.4,2.4-4.8l-6.9-6.1
				c-0.7-0.6-0.7-1.6-0.1-2.2c0.6-0.7,1.6-0.7,2.2-0.1L98,104c1.1-1,2.4-1.9,3.8-2.6c0.2-0.1,0.5-0.2,0.7-0.3l-2.9-8.8
				c-0.3-0.8,0.2-1.7,1-2c0.8-0.3,1.7,0.2,2,1l2.9,8.8c1.8-0.4,3.6-0.5,5.4-0.3l1.9-9c0.2-0.9,1-1.4,1.9-1.2c0.9,0.2,1.4,1,1.2,1.9
				l-1.9,9.1c1.7,0.5,3.3,1.3,4.8,2.4l6.1-6.9c0.6-0.7,1.6-0.7,2.2-0.1C127.9,96.3,128,97.3,127.4,97.9L127.4,97.9z"/>
			<path class="st0" d="M211.5,74.5l-6.1,6.9c0.4,0.4,0.8,0.8,1.1,1.3c0.5,0.7,0.4,1.7-0.3,2.2c-0.7,0.5-1.7,0.4-2.2-0.3
				c-3.9-5.1-10.8-6.8-16.6-3.9c-4.5,2.3-7.3,6.8-7.3,11.9c0,0.9-0.6,1.5-1.5,1.6c0,0-0.1,0-0.1,0c-0.9,0-1.6-0.7-1.6-1.6
				c0-0.6,0.1-1.1,0.1-1.7l-9.1-1.9c-0.9-0.2-1.4-1-1.2-1.9c0.2-0.9,1-1.4,1.9-1.2l9,1.9c0.5-1.8,1.4-3.4,2.4-4.8l-6.9-6.1
				c-0.6-0.6-0.7-1.6-0.1-2.2c0.6-0.6,1.6-0.7,2.2-0.1l6.9,6.1c1.1-1,2.4-1.9,3.8-2.7c0.2-0.1,0.5-0.2,0.7-0.3l-2.9-8.8
				c-0.3-0.8,0.2-1.7,1-2c0.8-0.3,1.7,0.2,2,1l2.9,8.8c1.8-0.4,3.6-0.5,5.4-0.3l1.9-9c0.2-0.9,1-1.4,1.9-1.2c0.9,0.2,1.4,1,1.2,1.9
				l-1.9,9.1c1.7,0.5,3.3,1.3,4.8,2.4l6.1-6.9c0.6-0.7,1.6-0.7,2.2-0.1C212,72.9,212.1,73.9,211.5,74.5L211.5,74.5z"/>
		</g>
	</g>
	<path class="st0" d="M281.9,156c-1,1.8-2,3.5-3.2,5.1l-9.1,40.1h22L281.9,156z M413.6,156.8c-2.8-1.7-7.1-2.6-13.1-2.6h-11.4v22.8
		h6.3c8.1,0,13.9-0.9,17.3-2.7c3.4-1.8,5-4.9,5-9.3C417.8,161.3,416.4,158.6,413.6,156.8L413.6,156.8z M542.2,170.8
		c-2-4.5-4.8-8.1-8.4-10.7c-3.6-2.6-7.8-3.9-12.5-3.9c-6.9,0-12.6,2.8-17,8.4c-4.4,5.6-6.6,12.9-6.6,21.9s2.2,15.9,6.6,21.3
		c4.4,5.4,10.1,8.1,17.2,8.1s12.7-2.7,17.1-8.1c4.5-5.4,6.7-12.5,6.7-21.3C545.3,180.6,544.2,175.3,542.2,170.8z M542.2,170.8
		c-2-4.5-4.8-8.1-8.4-10.7c-3.6-2.6-7.8-3.9-12.5-3.9c-6.9,0-12.6,2.8-17,8.4c-4.4,5.6-6.6,12.9-6.6,21.9s2.2,15.9,6.6,21.3
		c4.4,5.4,10.1,8.1,17.2,8.1s12.7-2.7,17.1-8.1c4.5-5.4,6.7-12.5,6.7-21.3C545.3,180.6,544.2,175.3,542.2,170.8z M413.6,156.8
		c-2.8-1.7-7.1-2.6-13.1-2.6h-11.4v22.8h6.3c8.1,0,13.9-0.9,17.3-2.7c3.4-1.8,5-4.9,5-9.3C417.8,161.3,416.4,158.6,413.6,156.8
		L413.6,156.8z M281.9,156c-1,1.8-2,3.5-3.2,5.1l-9.1,40.1h22L281.9,156z M281.9,156l-1-4.5l-2.2,9.6l-9.1,40.1h22L281.9,156z
		 M413.6,156.8c-2.8-1.7-7.1-2.6-13.1-2.6h-11.4v22.8h6.3c8.1,0,13.9-0.9,17.3-2.7c3.4-1.8,5-4.9,5-9.3
		C417.8,161.3,416.4,158.6,413.6,156.8L413.6,156.8z M542.2,170.8c-2-4.5-4.8-8.1-8.4-10.7c-3.6-2.6-7.8-3.9-12.5-3.9
		c-6.9,0-12.6,2.8-17,8.4c-4.4,5.6-6.6,12.9-6.6,21.9s2.2,15.9,6.6,21.3c4.4,5.4,10.1,8.1,17.2,8.1s12.7-2.7,17.1-8.1
		c4.5-5.4,6.7-12.5,6.7-21.3C545.3,180.6,544.2,175.3,542.2,170.8z M542.2,170.8c-2-4.5-4.8-8.1-8.4-10.7c-3.6-2.6-7.8-3.9-12.5-3.9
		c-6.9,0-12.6,2.8-17,8.4c-4.4,5.6-6.6,12.9-6.6,21.9s2.2,15.9,6.6,21.3c4.4,5.4,10.1,8.1,17.2,8.1s12.7-2.7,17.1-8.1
		c4.5-5.4,6.7-12.5,6.7-21.3C545.3,180.6,544.2,175.3,542.2,170.8z M413.6,156.8c-2.8-1.7-7.1-2.6-13.1-2.6h-11.4v22.8h6.3
		c8.1,0,13.9-0.9,17.3-2.7c3.4-1.8,5-4.9,5-9.3C417.8,161.3,416.4,158.6,413.6,156.8L413.6,156.8z M281.9,156l-1-4.5l-2.2,9.6
		l-9.1,40.1h22L281.9,156z M281.9,156l-1-4.5l-2.2,9.6l-9.1,40.1h22L281.9,156z M413.6,156.8c-2.8-1.7-7.1-2.6-13.1-2.6h-11.4v22.8
		h6.3c8.1,0,13.9-0.9,17.3-2.7c3.4-1.8,5-4.9,5-9.3C417.8,161.3,416.4,158.6,413.6,156.8L413.6,156.8z M542.2,170.8
		c-2-4.5-4.8-8.1-8.4-10.7c-3.6-2.6-7.8-3.9-12.5-3.9c-6.9,0-12.6,2.8-17,8.4c-4.4,5.6-6.6,12.9-6.6,21.9s2.2,15.9,6.6,21.3
		c4.4,5.4,10.1,8.1,17.2,8.1s12.7-2.7,17.1-8.1c4.5-5.4,6.7-12.5,6.7-21.3C545.3,180.6,544.2,175.3,542.2,170.8z M542.2,170.8
		c-2-4.5-4.8-8.1-8.4-10.7c-3.6-2.6-7.8-3.9-12.5-3.9c-6.9,0-12.6,2.8-17,8.4c-4.4,5.6-6.6,12.9-6.6,21.9s2.2,15.9,6.6,21.3
		c4.4,5.4,10.1,8.1,17.2,8.1s12.7-2.7,17.1-8.1c4.5-5.4,6.7-12.5,6.7-21.3C545.3,180.6,544.2,175.3,542.2,170.8z M413.6,156.8
		c-2.8-1.7-7.1-2.6-13.1-2.6h-11.4v22.8h6.3c8.1,0,13.9-0.9,17.3-2.7c3.4-1.8,5-4.9,5-9.3C417.8,161.3,416.4,158.6,413.6,156.8
		L413.6,156.8z M281.9,156l-1-4.5l-2.2,9.6l-9.1,40.1h22L281.9,156z M281.9,156l-1-4.5l-2.2,9.6l-9.1,40.1h22L281.9,156z
		 M413.6,156.8c-2.8-1.7-7.1-2.6-13.1-2.6h-11.4v22.8h6.3c8.1,0,13.9-0.9,17.3-2.7c3.4-1.8,5-4.9,5-9.3
		C417.8,161.3,416.4,158.6,413.6,156.8L413.6,156.8z M542.2,170.8c-2-4.5-4.8-8.1-8.4-10.7c-3.6-2.6-7.8-3.9-12.5-3.9
		c-6.9,0-12.6,2.8-17,8.4c-4.4,5.6-6.6,12.9-6.6,21.9s2.2,15.9,6.6,21.3c4.4,5.4,10.1,8.1,17.2,8.1s12.7-2.7,17.1-8.1
		c4.5-5.4,6.7-12.5,6.7-21.3C545.3,180.6,544.2,175.3,542.2,170.8z M859.7,165.9c-4.1-4.9-10.8-7.4-19.9-7.4h-10.6v55.9h10.6
		c8.8,0,15.4-2.7,19.7-8s6.5-12.4,6.5-21.1C865.9,177.3,863.9,170.9,859.7,165.9L859.7,165.9z M859.7,165.9
		c-4.1-4.9-10.8-7.4-19.9-7.4h-10.6v55.9h10.6c8.8,0,15.4-2.7,19.7-8s6.5-12.4,6.5-21.1C865.9,177.3,863.9,170.9,859.7,165.9
		L859.7,165.9z M542.2,170.8c-2-4.5-4.8-8.1-8.4-10.7c-3.6-2.6-7.8-3.9-12.5-3.9c-6.9,0-12.6,2.8-17,8.4c-4.4,5.6-6.6,12.9-6.6,21.9
		s2.2,15.9,6.6,21.3c4.4,5.4,10.1,8.1,17.2,8.1s12.7-2.7,17.1-8.1c4.5-5.4,6.7-12.5,6.7-21.3C545.3,180.6,544.2,175.3,542.2,170.8z
		 M413.6,156.8c-2.8-1.7-7.1-2.6-13.1-2.6h-11.4v22.8h6.3c8.1,0,13.9-0.9,17.3-2.7c3.4-1.8,5-4.9,5-9.3
		C417.8,161.3,416.4,158.6,413.6,156.8L413.6,156.8z M281.9,156l-1-4.5l-2.2,9.6l-9.1,40.1h22L281.9,156z M1012.1,181.7
		c-1.9-3.1-4.1-5.9-6.6-8.5l10.1-43.5l-8.7-6.6c-5.5-4.2-12.3-7.4-20.8-9.7c-7.7-2.1-15.6-3.2-23.6-3.2c-12,0-22.8,2.1-32.1,6.1
		c-10.1,4.4-18.1,11-23.8,19.5c-0.8,1.2-1.6,2.5-2.3,3.8c-6.3-7.6-14.6-13.7-24.8-18.3c-12.8-5.8-28.3-8.6-47.4-8.6H661.9l-6.5,13.2
		v-13.2h-72.2v25.6c-5.9-7.5-13.3-13.8-22-18.5c-11.6-6.4-25-9.6-39.9-9.6c-14.8,0-28.3,3.3-39.9,9.7c-8.4,4.6-15.5,10.6-21.3,17.8
		c-2.8-4.4-6.4-8.5-10.8-11.9c-11.2-8.9-27.4-13.2-49.6-13.2h-63.7v54.8l-15.9-54.8h-79.1L224.5,173l-2.8,10.2l1.7-10.2l7.8-46
		l-8.9-6.1c-10.2-7-23.7-10.6-40.1-10.6c-14.7,0-28,3.4-39.5,10.1c-11.6,6.8-20.8,16.1-27.4,27.9c-6.5,11.7-9.8,25.1-9.8,39.8
		c0,6.7,0.7,13.1,2.1,19.1c1.3,5.6,3.1,11,5.6,16c0.6,1.2,1.2,2.4,1.9,3.6c6.5,11.5,15.7,20.5,27.4,26.8c11.3,6.1,24.5,9.2,39.2,9.2
		c7.1,0,13.9-0.9,20.6-2.6h73l4.8-21.8h2l4.3,21.8h120.1v-5.9c2,1.3,4.1,2.4,6.3,3.4c7.4,3.4,16.4,5.1,26.7,5.1
		c4.5,0,8.7-0.5,12.5-1.4c3.2-0.8,6.4-1.8,9.3-3l11.5-4.6l-0.5-7.2c3,2.3,6.2,4.5,9.6,6.4c11.6,6.4,25.1,9.7,39.9,9.7
		c14.9,0,28.3-3.3,39.9-9.7c8.7-4.8,16-11,21.9-18.6v25.6h72.2v-15.9l8.9,15.9h166.2c28.4,0,50.4-6.5,65.4-19.2
		c0.4-0.3,0.7-0.7,1.1-1l-1.1,5l10.7,6.2c6.3,3.7,14,6.6,22.7,8.7c8.4,2,16.8,3,25.1,3c18.8,0,34.1-4.8,45.5-14.3
		c8.5-7.1,18.6-20.2,18.6-42.6C1018.5,196.7,1016.4,188.5,1012.1,181.7L1012.1,181.7z M181.5,246c-11.9,0-22.3-2.4-31.2-7.2
		c-8.9-4.8-15.8-11.5-20.7-20.2c-0.3-0.5-0.6-1-0.8-1.5c-2.6-5-4.4-10.5-5.5-16.4c-0.7-4-1-8.1-1-12.5c0-11.9,2.6-22.4,7.7-31.6
		c5.1-9.1,12.2-16.3,21.2-21.6c9-5.2,19.3-7.9,31-7.9c13,0,23.2,2.5,30.6,7.6l-4.5,26.3c-3.2-1.5-6.5-2.7-10-3.4
		c-3.5-0.7-6.8-1.1-9.8-1.1c-9,0-16.1,2.7-21.3,8.1c-5.2,5.4-7.8,12.9-7.8,22.5c0,4.6,0.6,8.7,2,12.3c1.2,3.5,3.1,6.4,5.6,9
		c2.8,2.8,6.1,4.9,10.1,6.1c3.2,1,6.8,1.6,10.9,1.6c3.5,0,6.8-0.3,9.7-1s6.5-1.9,10.8-3.6l4.6,26.1C203.3,243.2,192.8,246,181.5,246
		L181.5,246z M299.9,243.4l-4.3-21.8h-29.4l-4.8,21.8h-38.9l15.2-54.9l5.3-19.2l10.9-39.6h53.6l1,3.5l31.9,110.3H299.9L299.9,243.4z
		 M447.6,245.1c-2.5,0.6-5.3,0.9-8.5,0.9c-7.9,0-14.5-1.2-19.7-3.5s-9.3-5.6-12.4-9.8c-3.1-4.2-5.4-9.1-6.9-14.7
		c-1.5-5.6-2.6-11.7-3.1-18.2h-7.8v43.6H353V129.7h46.8c18.1,0,31.1,3.2,39.1,9.5c8,6.3,12,14.9,12,25.7c0,6.5-1.8,12.3-5.3,17.4
		s-9.2,9.4-17,12.8c0.4,2.4,0.8,4.4,1.2,6c0.3,1.5,0.8,3.2,1.5,5.1c1.4,4,3.2,6.7,5.4,8.3c2.1,1.5,5.1,2.3,8.9,2.3
		c2.4,0,4.9-0.3,7.3-1l2,27.1C452.4,243.8,450.1,244.5,447.6,245.1L447.6,245.1z M574.6,217.4c-5.1,8.9-12.3,15.9-21.4,21
		s-19.7,7.6-31.7,7.6c-12,0-22.6-2.5-31.7-7.6c-9.1-5.1-16.3-12.1-21.4-21c-5.1-8.9-7.7-19.2-7.7-30.8s2.6-22,7.7-30.9
		c5.1-8.9,12.3-15.9,21.4-21c9.1-5.1,19.7-7.6,31.7-7.6c12,0,22.6,2.5,31.7,7.5c9.2,5,16.3,12,21.4,20.9c5.1,8.9,7.7,19.3,7.7,31.1
		S579.7,208.5,574.6,217.4z M674.3,243.4l-24.5-43.8h-11.2v43.8h-38.3V129.7h38.3v45.3h11.7l22.2-45.3h41.3L683.7,186l34.2,57.4
		H674.3z M769.3,243.4H732V129.7h37.4V243.4z M885,228.2c-12,10.1-30.1,15.2-54.5,15.2h-37.9V129.7h39.5c16.5,0,30,2.4,40.4,7.1
		c10.4,4.7,18.1,11.3,23,19.7c4.9,8.4,7.3,18.1,7.3,29.3C903,203.9,897,218.1,885,228.2L885,228.2z M989.1,235.6
		c-8.3,6.9-19.9,10.4-34.6,10.4c-6.9,0-14-0.9-21.2-2.6c-7.2-1.7-13.2-4-18.2-6.9l6-27c6.4,3.4,12.4,5.6,17.9,6.7
		c5.6,1,10.7,1.6,15.5,1.6c4.4,0,7.8-0.7,10-2.1c2.2-1.4,3.4-3.4,3.4-5.8c0-2.2-1.3-3.9-3.8-5.2c-2.5-1.3-5.8-2.5-9.8-3.5
		c-4-1.1-8.3-2.4-12.8-3.9c-4.5-1.5-8.8-3.5-12.8-6c-4-2.5-7.3-5.8-9.8-9.9c-2.5-4.1-3.8-9.3-3.8-15.6c0-7.9,1.9-14.8,5.8-20.6
		c3.8-5.8,9.4-10.2,16.5-13.4c7.2-3.1,15.6-4.7,25.3-4.7c6.5,0,12.9,0.9,19.1,2.6c6.2,1.7,11.2,4,15,6.9l-5.6,24.3
		c-5.6-2.3-10.7-4-15.1-5c-4.5-1-8.7-1.6-12.6-1.6c-4.6,0-8.2,0.7-10.6,2c-2.4,1.3-3.6,3.1-3.6,5.3s1.3,3.8,3.8,5.1
		c2.5,1.3,5.8,2.6,9.8,3.8c4,1.2,8.2,2.6,12.7,4.1c4.5,1.5,8.8,3.6,12.7,6.1c4,2.5,7.2,5.8,9.8,9.9c2.5,4.1,3.8,9.2,3.8,15.4
		C1001.6,218.8,997.4,228.7,989.1,235.6L989.1,235.6z M839.8,158.6h-10.6v55.9h10.6c8.8,0,15.4-2.7,19.7-8s6.5-12.4,6.5-21.1
		c0-8-2.1-14.5-6.2-19.4C855.6,161,849,158.6,839.8,158.6L839.8,158.6z M533.8,160.2c-3.6-2.6-7.8-3.9-12.5-3.9
		c-6.9,0-12.6,2.8-17,8.4c-4.4,5.6-6.6,12.9-6.6,21.9s2.2,15.9,6.6,21.3c4.4,5.4,10.1,8.1,17.2,8.1s12.7-2.7,17.1-8.1
		c4.5-5.4,6.7-12.5,6.7-21.3c0-6-1-11.2-3.1-15.7S537.3,162.8,533.8,160.2z M413.6,156.8c-2.8-1.7-7.1-2.6-13.1-2.6h-11.4v22.8h6.3
		c8.1,0,13.9-0.9,17.3-2.7c3.4-1.8,5-4.9,5-9.3C417.8,161.3,416.4,158.6,413.6,156.8L413.6,156.8z M280.9,151.5l-2.2,9.6l-9.1,40.1
		h22l-9.8-45.2L280.9,151.5z M281.9,156l-1-4.5l-2.2,9.6l-9.1,40.1h22L281.9,156z M413.6,156.8c-2.8-1.7-7.1-2.6-13.1-2.6h-11.4
		v22.8h6.3c8.1,0,13.9-0.9,17.3-2.7c3.4-1.8,5-4.9,5-9.3C417.8,161.3,416.4,158.6,413.6,156.8L413.6,156.8z M542.2,170.8
		c-2-4.5-4.8-8.1-8.4-10.7c-3.6-2.6-7.8-3.9-12.5-3.9c-6.9,0-12.6,2.8-17,8.4c-4.4,5.6-6.6,12.9-6.6,21.9s2.2,15.9,6.6,21.3
		c4.4,5.4,10.1,8.1,17.2,8.1s12.7-2.7,17.1-8.1c4.5-5.4,6.7-12.5,6.7-21.3C545.3,180.6,544.2,175.3,542.2,170.8z M859.7,165.9
		c-4.1-4.9-10.8-7.4-19.9-7.4h-10.6v55.9h10.6c8.8,0,15.4-2.7,19.7-8s6.5-12.4,6.5-21.1C865.9,177.3,863.9,170.9,859.7,165.9
		L859.7,165.9z M859.7,165.9c-4.1-4.9-10.8-7.4-19.9-7.4h-10.6v55.9h10.6c8.8,0,15.4-2.7,19.7-8s6.5-12.4,6.5-21.1
		C865.9,177.3,863.9,170.9,859.7,165.9L859.7,165.9z M542.2,170.8c-2-4.5-4.8-8.1-8.4-10.7c-3.6-2.6-7.8-3.9-12.5-3.9
		c-6.9,0-12.6,2.8-17,8.4c-4.4,5.6-6.6,12.9-6.6,21.9s2.2,15.9,6.6,21.3c4.4,5.4,10.1,8.1,17.2,8.1s12.7-2.7,17.1-8.1
		c4.5-5.4,6.7-12.5,6.7-21.3C545.3,180.6,544.2,175.3,542.2,170.8z M413.6,156.8c-2.8-1.7-7.1-2.6-13.1-2.6h-11.4v22.8h6.3
		c8.1,0,13.9-0.9,17.3-2.7c3.4-1.8,5-4.9,5-9.3C417.8,161.3,416.4,158.6,413.6,156.8L413.6,156.8z M281.9,156l-1-4.5l-2.2,9.6
		l-9.1,40.1h22L281.9,156z M281.9,156l-1-4.5l-2.2,9.6l-9.1,40.1h22L281.9,156z M413.6,156.8c-2.8-1.7-7.1-2.6-13.1-2.6h-11.4v22.8
		h6.3c8.1,0,13.9-0.9,17.3-2.7c3.4-1.8,5-4.9,5-9.3C417.8,161.3,416.4,158.6,413.6,156.8L413.6,156.8z M542.2,170.8
		c-2-4.5-4.8-8.1-8.4-10.7c-3.6-2.6-7.8-3.9-12.5-3.9c-6.9,0-12.6,2.8-17,8.4c-4.4,5.6-6.6,12.9-6.6,21.9s2.2,15.9,6.6,21.3
		c4.4,5.4,10.1,8.1,17.2,8.1s12.7-2.7,17.1-8.1c4.5-5.4,6.7-12.5,6.7-21.3C545.3,180.6,544.2,175.3,542.2,170.8z M542.2,170.8
		c-2-4.5-4.8-8.1-8.4-10.7c-3.6-2.6-7.8-3.9-12.5-3.9c-6.9,0-12.6,2.8-17,8.4c-4.4,5.6-6.6,12.9-6.6,21.9s2.2,15.9,6.6,21.3
		c4.4,5.4,10.1,8.1,17.2,8.1s12.7-2.7,17.1-8.1c4.5-5.4,6.7-12.5,6.7-21.3C545.3,180.6,544.2,175.3,542.2,170.8z M413.6,156.8
		c-2.8-1.7-7.1-2.6-13.1-2.6h-11.4v22.8h6.3c8.1,0,13.9-0.9,17.3-2.7c3.4-1.8,5-4.9,5-9.3C417.8,161.3,416.4,158.6,413.6,156.8
		L413.6,156.8z M281.9,156l-1-4.5l-2.2,9.6l-9.1,40.1h22L281.9,156z M281.9,156c-1,1.8-2,3.5-3.2,5.1l-9.1,40.1h22L281.9,156z
		 M413.6,156.8c-2.8-1.7-7.1-2.6-13.1-2.6h-11.4v22.8h6.3c8.1,0,13.9-0.9,17.3-2.7c3.4-1.8,5-4.9,5-9.3
		C417.8,161.3,416.4,158.6,413.6,156.8L413.6,156.8z M542.2,170.8c-2-4.5-4.8-8.1-8.4-10.7c-3.6-2.6-7.8-3.9-12.5-3.9
		c-6.9,0-12.6,2.8-17,8.4c-4.4,5.6-6.6,12.9-6.6,21.9s2.2,15.9,6.6,21.3c4.4,5.4,10.1,8.1,17.2,8.1s12.7-2.7,17.1-8.1
		c4.5-5.4,6.7-12.5,6.7-21.3C545.3,180.6,544.2,175.3,542.2,170.8z M542.2,170.8c-2-4.5-4.8-8.1-8.4-10.7c-3.6-2.6-7.8-3.9-12.5-3.9
		c-6.9,0-12.6,2.8-17,8.4c-4.4,5.6-6.6,12.9-6.6,21.9s2.2,15.9,6.6,21.3c4.4,5.4,10.1,8.1,17.2,8.1s12.7-2.7,17.1-8.1
		c4.5-5.4,6.7-12.5,6.7-21.3C545.3,180.6,544.2,175.3,542.2,170.8z M413.6,156.8c-2.8-1.7-7.1-2.6-13.1-2.6h-11.4v22.8h6.3
		c8.1,0,13.9-0.9,17.3-2.7c3.4-1.8,5-4.9,5-9.3C417.8,161.3,416.4,158.6,413.6,156.8L413.6,156.8z M281.9,156c-1,1.8-2,3.5-3.2,5.1
		l-9.1,40.1h22L281.9,156z M413.6,156.8c-2.8-1.7-7.1-2.6-13.1-2.6h-11.4v22.8h6.3c8.1,0,13.9-0.9,17.3-2.7c3.4-1.8,5-4.9,5-9.3
		C417.8,161.3,416.4,158.6,413.6,156.8L413.6,156.8z M413.6,156.8c-2.8-1.7-7.1-2.6-13.1-2.6h-11.4v22.8h6.3
		c8.1,0,13.9-0.9,17.3-2.7c3.4-1.8,5-4.9,5-9.3C417.8,161.3,416.4,158.6,413.6,156.8L413.6,156.8z"/>
</g>
</svg>
