<?xml version="1.0" encoding="utf-8"?>
<!-- Generator: Adobe Illustrator 30.5.1, SVG Export Plug-In . SVG Version: 9.03 Build 0)  -->
<svg version="1.1" id="Layer_1" xmlns="http://www.w3.org/2000/svg" xmlns:xlink="http://www.w3.org/1999/xlink" x="0px" y="0px"
	 viewBox="0 0 442.4 145.5" style="enable-background:new 0 0 442.4 145.5;" xml:space="preserve">
<style type="text/css">
	.st0{fill:#FFFFFF;}
</style>
<g>
	<path class="st0" d="M291,22v18.9h16.2v19H291v21.9h19v19.9h-44.9V2.1h43.2V22H291z M259.2,2.1h-56.6V22h15.3v6.2l9-0.5l11.3,19.4
		h-20.3v5.4h20.3L227,72l-9-0.5v30.2h25.9V22h15.4L259.2,2.1L259.2,2.1z M74.2,93.1c-2.2-3.2-3.6-6.5-4-10S69.6,72.2,69.6,61V2.1
		h25.9v42.5h-1.1v10.5h1.1v21.7c0,4.3,0.2,7.1,0.7,8.3c0.5,1.2,1.4,1.8,2.9,1.8c1.6,0,2.7-0.7,3.2-2s0.7-4.5,0.7-9.4V55.1h1.7V44.6
		H103V2.1h25.9v66.6c0,7.5-0.3,12.8-0.7,15.9c-0.5,3.1-2,6.2-4.4,9.4c-2.4,3.2-5.6,5.7-9.6,7.3c-3.9,1.7-8.6,2.5-14,2.5
		c-6,0-11.2-1-15.7-3C79.8,98.8,76.4,96.3,74.2,93.1z M119.1,54.9c3.6-0.1,4-0.2,7.3-0.3v-9.4c-3.3-0.1-3.7-0.2-7.3-0.3V54.9z
		 M107.3,55.1c3.5,0,5.5-0.1,8.8-0.2V44.7c-3.3-0.1-5.3-0.1-8.8-0.2V55.1z M82.7,54.9C86,55,88,55,91.5,55.1V44.6
		c-3.5,0-5.5,0.1-8.8,0.2V54.9z M79.8,54.9V44.8c-3.6,0.1-4.3,0.2-7.6,0.3v9.4C75.5,54.7,76.2,54.8,79.8,54.9z M33.7,37.7H26V2.1H0
		v46.6l19.3-1.2l26.5,0.3V52l-26.5,0.3L0,50.8v50.9h25.9V59.9h7.7v41.8h25.9V53.6c-3.2-0.5-5.5-1-8.2-1.2v-5.1
		c2.7-0.2,4.9-0.8,8.2-1.2v-44H33.7V37.7z M361,49.7c5.1,1.3,8.6,3,10.4,5.1c1.7,2.1,2.9,4.1,3.3,5.9c0.4,1.8,0.7,6.7,0.7,14.7v26.3
		h-24V68.6c0-5.3-0.4-8.6-1.3-9.9c-0.8-1.3-3-1.9-6.6-1.9v44.9h-25.9V2.1h18.3c12.2,0,20.5,0.5,24.8,1.4s7.9,3.4,10.6,7.2
		c2.7,3.9,4.1,10.1,4.1,18.6c0,7.7-1,13-2.9,15.6C370.4,47.6,366.6,49.2,361,49.7z M351.2,26.8c0-3.2-0.6-5.2-1.7-6.2
		s-3.2-1.5-6.2-1.5v22.1c2.9,0,4.9-0.4,6.1-1.2s1.8-3.4,1.8-7.8L351.2,26.8L351.2,26.8z M416,38.1c-4-2.4-6.5-4.4-7.3-6.1
		c-0.9-1.7-1.3-4.2-1.3-7.5c0-2.6,0.4-4.5,1.2-5.8c0.8-1.3,2-1.9,3.5-1.9c1.4,0,2.5,0.5,3.1,1.4s0.9,3.1,0.9,6.6v7.4h24v-3.9
		c0-7.9-0.8-13.5-2.3-16.8c-1.6-3.3-4.7-6-9.4-8.2C423.7,1.1,418,0,411.2,0c-6.2,0-11.4,1-15.7,3c-4.3,2-7.5,4.7-9.4,8.3
		c-2,3.5-2.9,9.1-2.9,16.7c0,5.3,0.7,9.6,2.1,13s3.1,6.1,5.2,8s6.4,5,12.8,9.3c6.4,4.2,10.5,7.2,12.1,9s2.4,5.6,2.4,11.5
		c0,2.7-0.4,4.7-1.3,6c-0.8,1.4-2.1,2-3.8,2c-1.7,0-2.9-0.5-3.6-1.6s-1-3.5-1-7.2V66h-24v6.5c0,7.5,0.8,13.2,2.3,17.3
		c1.5,4.1,4.7,7.4,9.6,10s10.8,3.9,17.7,3.9c6.3,0,11.8-1.2,16.6-3.4c4.7-2.3,8-5.1,9.6-8.5c1.7-3.4,2.5-8.6,2.5-15.7
		c0-9.8-1.5-16.8-4.5-21.2C434.8,50.6,427.6,45,416,38.1z M196.6,70.3l-3.4-0.2l-8.9-18.4L151.9,53v-6.3l32.5,1.2l8.9-18.3l3.4-0.2
		V2.1H175v41.2L160.5,2.1h-21.6v43.5c3.4,0.2,4.8,0.5,7.7,0.7v7c-2.9,0.3-4.3,0.5-7.7,0.7v47.7h21.6V59.6l13.5,42.1h22.7L196.6,70.3
		L196.6,70.3z M260.8,124.1v21h16.6v-5.2h-10.1v-15.8H260.8z M247.9,128.6c0.7,0,1.2,0.1,1.8,0.4c0.5,0.3,1,0.7,1.3,1.1
		c0.2,0.3,0.4,0.8,0.6,1.4l5.7-1.3c-0.7-2.2-1.9-3.9-3.4-4.9c-1.5-1.1-3.6-1.6-6.2-1.6c-3.4,0-6,0.9-7.9,2.8c-1.8,1.9-2.8,4.5-2.8,8
		c0,2.6,0.5,4.7,1.6,6.4s2.3,2.8,3.8,3.5c1.4,0.7,3.3,1,5.6,1c1.9,0,3.4-0.3,4.7-0.8c1.2-0.5,2.2-1.4,3.1-2.4c0.8-1.1,1.4-2.4,1.8-4
		l-5.7-1.7l0,0c-0.3,1.3-0.7,2.3-1.4,3c-0.6,0.7-1.6,1-2.8,1c-1.3,0-2.3-0.4-3-1.3c-0.7-0.9-1.1-2.5-1.1-4.8c0-1.9,0.3-3.3,0.9-4.1
		C245.3,129.2,246.5,128.6,247.9,128.6z M197.4,145.1v-15.8h6.6v-5.2h-19.7v5.2h6.6v15.8H197.4z M321.4,132.5
		c-0.5,0.6-1.3,1.1-2.3,1.4c1.5,0.4,2.6,1,3.3,1.9c0.7,0.9,1.1,2,1.1,3.3c0,1.1-0.3,2.1-0.8,2.9c-0.5,0.9-1.2,1.6-2.1,2.1
		c-0.5,0.3-1.4,0.5-2.5,0.7c-1.5,0.2-2.4,0.3-2.9,0.3H304v-21h12.2c2,0,3.6,0.5,4.7,1.5s1.6,2.2,1.6,3.7
		C322.5,130.5,322.1,131.6,321.4,132.5z M310.6,132.3h2.8c1,0,1.7-0.2,2.1-0.5c0.4-0.4,0.6-0.9,0.6-1.5s-0.2-1.1-0.6-1.4
		c-0.4-0.3-1.1-0.5-2.1-0.5h-2.9v3.9H310.6z M317,138.4c0-0.6-0.2-1.1-0.7-1.5s-1.2-0.6-2.4-0.6h-3.3v4.3h3.3c1.1,0,1.9-0.2,2.4-0.6
		C316.8,139.6,317,139,317,138.4z M279.6,124.1v12.5c0,1,0.2,2.2,0.6,3.6c0.2,0.8,0.7,1.6,1.4,2.4c0.7,0.8,1.4,1.4,2.2,1.8
		c0.8,0.4,1.8,0.7,3,0.9c1.2,0.1,2.3,0.2,3.3,0.2c1.8,0,3.3-0.2,4.5-0.7c0.9-0.3,1.8-0.9,2.6-1.7c0.8-0.8,1.4-1.8,1.8-2.9
		c0.4-1.1,0.6-2.3,0.6-3.5v-12.5h-6.5V137c0,1.2-0.3,2.1-0.9,2.7c-0.6,0.6-1.5,1-2.6,1s-2-0.3-2.6-1c-0.6-0.6-0.9-1.5-0.9-2.7v-12.8
		h-6.5V124.1z M215.7,141.3c-1.2,0-2.2-0.4-2.9-1.3c-0.4-0.5-0.7-1.3-0.8-2.3l-6.2,0.4c0.2,2.1,1,3.9,2.3,5.2
		c1.4,1.4,3.9,2.1,7.4,2.1c2,0,3.7-0.3,5.1-0.9c1.3-0.6,2.4-1.5,3.1-2.6c0.7-1.1,1.1-2.4,1.1-3.7c0-1.2-0.3-2.2-0.8-3.1
		c-0.6-0.9-1.5-1.7-2.7-2.3s-3.3-1.2-6.1-1.9c-1.2-0.2-1.9-0.5-2.2-0.8s-0.5-0.6-0.5-0.9c0-0.5,0.2-0.9,0.6-1.2
		c0.4-0.3,1-0.5,1.7-0.5c0.9,0,1.6,0.2,2.2,0.6c0.5,0.4,0.9,1.1,1,2.1l6.1-0.4c-0.3-2.2-1.1-3.8-2.5-4.8s-3.5-1.5-6.1-1.5
		c-2.2,0-3.9,0.3-5.2,0.8c-1.3,0.6-2.2,1.3-2.8,2.3s-0.9,2-0.9,3.1c0,1.6,0.6,3,1.8,4.1s3.2,1.9,6.1,2.6c1.7,0.4,2.8,0.8,3.3,1.2
		s0.7,0.9,0.7,1.5s-0.2,1.1-0.7,1.5C217.3,141.1,216.6,141.3,215.7,141.3z M179.4,135c-0.6,0.3-1.3,0.6-2.3,0.8
		c0.8,0.3,1.3,0.5,1.7,0.8c0.2,0.2,0.6,0.5,1,1.1c0.5,0.6,0.8,1,0.9,1.3l3.1,6.1h-7.3l-3.5-6.4c-0.4-0.8-0.8-1.4-1.2-1.6
		c-0.5-0.3-1-0.5-1.6-0.5h-0.6v8.5h-6.5v-21H174c2,0,3.5,0.2,4.6,0.5s1.9,1,2.6,1.9c0.7,0.9,1,2.1,1,3.4c0,1.2-0.2,2.2-0.7,3
		C180.9,133.8,180.3,134.5,179.4,135z M175.7,130.4c0-0.7-0.2-1.2-0.6-1.6c-0.4-0.4-1.2-0.5-2.4-0.5h-2.9v4.3h2.7
		c0.3,0,0.9-0.1,1.7-0.3c0.4-0.1,0.8-0.3,1.1-0.7C175.5,131.3,175.7,130.9,175.7,130.4z M153.1,124.1l7.9,21h-6.8l-1-3.5h-7.4
		l-1,3.5h-6.6l7.9-21H153.1z M151.9,137.1l-2.3-7.6l-2.3,7.6H151.9z M128.4,124.1c1.9,0,3.4,0.3,4.6,0.8c1.2,0.5,2.1,1.3,2.9,2.2
		c0.8,1,1.3,2.1,1.7,3.4c0.3,1.3,0.5,2.6,0.5,4.1c0,2.2-0.3,4-0.8,5.2s-1.2,2.3-2.1,3.1c-0.9,0.8-1.9,1.4-2.9,1.7
		c-1.4,0.4-2.7,0.6-3.9,0.6h-9.7v-21h9.7V124.1z M130.5,130.1c-0.7-0.8-1.9-1.2-3.6-1.2h-1.6v11.5h1.6c1.4,0,2.3-0.1,2.9-0.5
		c0.6-0.3,1-0.8,1.4-1.6c0.3-0.7,0.5-2,0.5-3.7C131.6,132.4,131.2,130.9,130.5,130.1z"/>
</g>
</svg>
