<?xml version="1.0" encoding="utf-8"?>
<!-- Generator: Adobe Illustrator 30.5.1, SVG Export Plug-In . SVG Version: 9.03 Build 0)  -->
<svg version="1.1" id="Layer_1" xmlns="http://www.w3.org/2000/svg" xmlns:xlink="http://www.w3.org/1999/xlink" x="0px" y="0px"
	 viewBox="0 0 474.8 97.9" style="enable-background:new 0 0 474.8 97.9;" xml:space="preserve">
<style type="text/css">
	.st0{fill:#FFFFFF;}
</style>
<g>
	<path class="st0" d="M96.8,34.3c0,12-8.8,26.6-8.8,40.1c0,10.6,5.6,16.7,12.5,16.7c3.8,0,5.9-1.8,5.9-4.2c0-1.9-1.4-3.1-2.8-3.1
		c-1,0-2.2,0.7-2.2,1.8c-0.6-0.4-1.1-1-1.1-2.2c0-2.3,2-5,5.5-5c3.9,0,7.6,3.1,7.6,8.1c0,5.3-4.2,11.4-13.2,11.4
		c-11.5,0-19-10-19-22.3c0-13.8,9.1-31.1,9.1-41.2c0-3.3-1.9-6.8-5.9-6.8c-4.8,0-9.4,4.7-9.4,15.8v30.3c0,2.2,0.3,3.7,0.9,4.5h-8.4
		c0.7-0.9,0.9-2.2,0.9-4.5v-37c0-9-4.4-17.3-11.2-22.8v59.9c0,2.2,0.3,3.7,0.9,4.5H50c0.7-0.9,0.9-2.2,0.9-4.5v-24
		C47.4,58.5,38,64.2,27.7,64.2C12.5,64.2,0,51.5,0,35.7C0,17.7,16.3,0,37.8,0C56,0,70.5,12.8,74.1,28.9c2.5-5.2,6.5-7.7,11.4-7.7
		C90.1,21.3,96.8,25.1,96.8,34.3z M6.9,36.1C6.9,48.7,16.1,58,27.6,58c9.7,0,17.9-6.6,17.9-15.6c0-7.2-5.3-12-10.1-12
		c-3.3,0-6,2.2-6,4.9c0,1.9,1.4,3.1,2.8,3.1c1,0,2.2-0.7,2.2-1.8c0.5,0.3,1.1,1.3,1.1,2.5c0,2-1.8,4.7-5.5,4.7
		c-3.9,0-7.6-3.1-7.6-8.1c0-6.4,6.2-11.9,13.6-11.9c5.3,0,11.9,2.9,14.8,10.8V12.2c0-0.9-0.1-1.8-0.2-2.5c-4-1.8-8.5-2.8-13.2-2.8
		C20.2,6.9,6.9,20.8,6.9,36.1z"/>
	<path class="st0" d="M117.8,26.2c9.9,0,17.9,8.1,17.9,18c0,10-8,18-17.9,18c-9.8,0-17.8-8-17.8-18C100,34.3,108,26.2,117.8,26.2z
		 M105.3,74.7c-1,0-2.8,0.3-3.6,0.9l-0.1,0.1l1.4-7.9c0.3,0.3,1.1,0.6,2.9,0.6h23.2c1.8,0,2.6-0.3,2.9-0.6l2,7.9
		c-0.9-0.8-2.7-1-3.7-1H105.3z M117.8,55.5c6.1,0,11-5,11-11.4c0-6.3-4.9-11.4-11-11.4s-10.9,5.1-10.9,11.4
		C106.9,50.6,111.7,55.5,117.8,55.5z"/>
	<path class="st0" d="M144.4,26.1c13.4,0,24.4,11,24.4,24.5S157.9,75,144.4,75h-6.1c0.7-0.9,0.9-2.2,0.9-4.5V30.2
		c0-1.6-0.3-3.4-0.9-4.1H144.4z M145.7,68.4c9.2-0.7,16.5-8.4,16.5-17.8s-7.3-17.1-16.5-17.7V68.4z"/>
	<path class="st0" d="M193.3,67.3l-1.4,7.9c-0.3-0.3-1.4-0.6-3.1-0.6h-17.7c0.7-0.9,0.9-2.2,0.9-4.5V30.6c0-1.6-0.3-3.4-0.9-4.1h17
		c1.8,0,2.6-0.3,2.9-0.6l1.4,7.9l-0.1-0.1c-0.9-0.7-2.6-0.9-3.6-0.9h-10.2V53h6.9c1.5,0,3.5-0.3,4-0.9v8.2c-0.6-0.8-2.6-0.9-4-0.9
		h-6.9v9.2h11.1C190.7,68.4,192.3,68.1,193.3,67.3L193.3,67.3z"/>
	<path class="st0" d="M196,26.1h8.4c10.5,0,18,7.6,18,17c0,6.7-4,13.1-10.8,16c0.5,7.4,6.2,9.5,9.1,9.5c0.7,0,1.8-0.2,2.2-0.9v6.9
		c-0.9,0.6-2.2,0.9-3.3,0.9c-5.7,0-14.9-5.7-14.5-17.9c0.1-1.5,0.2-3.1,0.6-4.1c5.3,0.4,10-4.7,10-10.2c0-4.4-3.4-10.5-10.5-10.5
		h-1.9v37.5c0,2.2,0.3,3.7,0.9,4.5H196c0.7-0.9,0.9-2.2,0.9-4.5V30.6C197,28.3,196.7,27,196,26.1z"/>
	<path class="st0" d="M226.1,26.4h8.4c-0.6,0.8-0.9,2.2-0.9,4.5V33l14,18.6V30.9c0-2.2-0.3-3.6-0.9-4.5h8.4
		c-0.6,0.8-0.9,2.2-0.9,4.5v39.3c0,2.2,0.3,3.7,0.9,4.5h-8.4c0.7-0.9,0.9-2.2,0.9-4.5v-8l-14-18.5v26.5c0,2.2,0.3,3.7,0.9,4.5h-8.4
		c0.8-0.9,0.9-2.2,0.9-4.5V30.9C227,28.7,226.8,27.3,226.1,26.4z"/>
	<path class="st0" d="M268.6,39.7c0,13.5,9.4,25.8,23.2,25.8c8.4,0,21.4-4.7,21.4-20.6v-1c0-2.2-0.3-3.6-0.9-4.5h8.4
		c-0.6,0.8-0.9,2.2-0.9,4.5v28.9c0,17-12.3,24-21.1,24c-8.6,0-17.4-6.7-17.4-16.3c0-3.7,1.3-6.8,3.4-9
		c-13.7-3.1-23.8-15.2-23.8-31.4c0-19.9,15.5-36.9,36.2-36.9c17.2,0,23.6,11.8,23.6,18.2c0,4.9-3.8,9.2-8.1,9.2
		c-3.4,0-5.4-2.7-5.4-5c0-1.2,0.5-1.8,1.1-2.2c0,1.1,1.2,1.8,2.2,1.8c1.4,0,2.8-1.5,2.8-3.4c0-3.6-4.3-11.3-16-11.3
		C281.8,10.4,268.6,23.7,268.6,39.7z M313.2,62.1c-3.4,4.7-8.6,7.8-14.1,9.2c1,1.3,1.6,3,1.6,4.7c0,3.5-2.3,5.4-4.5,5.4
		c-1.1,0-2.3-0.5-2.8-1.1c1.1,0,1.8-1.2,1.8-2.2c0-1.4-1.2-2.8-3.2-2.8c-2.8,0-4.3,2.7-4.3,5.4c0,5.1,5.3,9.3,11,9.3
		c5.9,0,14.5-4.4,14.5-17.1V62.1z"/>
	<path class="st0" d="M331.3,74.7h-9c0.9-0.8,1.8-2.3,2.4-4.5L335,30.9c0.6-2.3,0.5-3.6-0.1-4.4v-0.1h9l-0.1,0.1
		c-0.5,0.8-0.7,2.1,0,4.4l10.3,39.3c0.5,2.2,1.6,3.7,2.4,4.5h-9c0.6-0.8,0.8-2.1,0.1-4.5l-1.2-4.2h-14.1l-1.2,4.2
		C330.6,72.6,330.7,73.9,331.3,74.7z M334.2,59.9h10.7l-5.1-24.1L334.2,59.9z"/>
	<path class="st0" d="M358,26.1h8.4c10.5,0,18,7.6,18,17c0,6.7-4,13.1-10.8,16c0.5,7.4,6.2,9.5,9.1,9.5c0.7,0,1.8-0.2,2.2-0.9v6.9
		c-0.9,0.6-2.2,0.9-3.3,0.9c-5.7,0-14.9-5.7-14.5-17.9c0.1-1.5,0.2-3.1,0.6-4.1c5.3,0.4,10-4.7,10-10.2c0-4.4-3.4-10.5-10.5-10.5
		h-1.9v37.5c0,2.2,0.3,3.7,0.9,4.5h-8.4c0.7-0.9,0.9-2.2,0.9-4.5V30.6C359,28.3,358.7,27,358,26.1z"/>
	<path class="st0" d="M394.2,26.1c13.4,0,24.4,11,24.4,24.5S407.6,75,394.2,75h-6.1c0.7-0.9,0.9-2.2,0.9-4.5V30.2
		c0-1.6-0.3-3.4-0.9-4.1H394.2z M395.5,68.4c9.2-0.7,16.5-8.4,16.5-17.8s-7.3-17.1-16.5-17.7V68.4z"/>
	<path class="st0" d="M443.1,67.3l-1.4,7.9c-0.3-0.3-1.4-0.6-3.1-0.6h-17.7c0.7-0.9,0.9-2.2,0.9-4.5V30.6c0-1.6-0.3-3.4-0.9-4.1h17
		c1.8,0,2.6-0.3,2.9-0.6l1.4,7.9l-0.1-0.1c-0.9-0.7-2.6-0.9-3.6-0.9h-10.2V53h6.9c1.5,0,3.5-0.3,4-0.9v8.2c-0.6-0.8-2.6-0.9-4-0.9
		h-6.9v9.2h11.1C440.5,68.4,442.1,68.1,443.1,67.3L443.1,67.3z"/>
	<path class="st0" d="M445.8,26.4h8.4c-0.6,0.8-0.9,2.2-0.9,4.5V33l14,18.6V30.9c0-2.2-0.3-3.6-0.9-4.5h8.4
		c-0.6,0.8-0.9,2.2-0.9,4.5v39.3c0,2.2,0.3,3.7,0.9,4.5h-8.4c0.7-0.9,0.9-2.2,0.9-4.5v-8l-14-18.5v26.5c0,2.2,0.3,3.7,0.9,4.5h-8.4
		c0.8-0.9,0.9-2.2,0.9-4.5V30.9C446.7,28.7,446.6,27.3,445.8,26.4z"/>
</g>
</svg>
