<?xml version="1.0" encoding="utf-8"?>
<!-- Generator: Adobe Illustrator 30.5.1, SVG Export Plug-In . SVG Version: 9.03 Build 0)  -->
<svg version="1.1" id="Layer_1" xmlns="http://www.w3.org/2000/svg" xmlns:xlink="http://www.w3.org/1999/xlink" x="0px" y="0px"
	 viewBox="0 0 213.3 117.1" style="enable-background:new 0 0 213.3 117.1;" xml:space="preserve">
<style type="text/css">
	.st0{fill:#FFFFFF;}
</style>
<g>
	<g>
		<path class="st0" d="M69.7,31.8l-3.6,16.7C64.5,56,61.2,58,54.9,58c-6.6,0-9.7-3.3-8.2-10.5l3.8-17.7c1.5-7.1,5.2-9,10.6-9
			C68.4,20.7,71.3,24.4,69.7,31.8z M59.1,29.4l-4.2,19.8c-0.3,1.4-0.1,2.2,0.9,2.2s1.4-0.8,1.7-2.2l4.2-19.9
			c0.3-1.6,0.1-2.1-0.9-2.1C59.9,27.2,59.4,27.7,59.1,29.4z"/>
		<path class="st0" d="M82,21.2l-6,28.2c-0.3,1.3-0.1,2,0.8,2c1,0,1.3-0.7,1.6-2l6-28.2h8.7l-5.8,27.1c-1.4,6.7-3.8,9.5-11.3,9.5
			c-7.3,0-9.5-3.8-8.2-10l5.7-26.7L82,21.2L82,21.2z"/>
		<path class="st0" d="M97.1,28.1h-4.5l1.5-6.9h17.4l-1.5,6.9h-4.5l-6.2,29.4h-8.4L97.1,28.1z"/>
		<path class="st0" d="M112.9,21.2h9.2c7,0,9.6,3.5,8,11.2l-3,14.4c-1.5,7.2-3.3,10.6-10.5,10.6h-11.4L112.9,21.2z M115.1,51.2h0.8
			c1.4,0,2-0.9,2.3-2.3l4-19.1c0.3-1.6,0.2-2.4-1.4-2.4h-0.6L115.1,51.2z"/>
		<path class="st0" d="M151.8,31.8l-3.6,16.7C146.6,56,143.3,58,137,58c-6.6,0-9.7-3.3-8.2-10.5l3.8-17.7c1.5-7.1,5.2-9,10.6-9
			C150.5,20.7,153.4,24.4,151.8,31.8z M141.2,29.4L137,49.2c-0.3,1.4-0.1,2.2,0.9,2.2s1.4-0.8,1.7-2.2l4.2-19.9
			c0.3-1.6,0.1-2.1-0.9-2.1C142,27.2,141.5,27.7,141.2,29.4z"/>
		<path class="st0" d="M173.3,31.8l-3.6,16.7c-1.6,7.4-4.9,9.5-11.2,9.5c-6.6,0-9.7-3.3-8.2-10.5l3.8-17.7c1.5-7.1,5.2-9,10.6-9
			C172,20.7,174.9,24.4,173.3,31.8z M162.7,29.4l-4.2,19.8c-0.3,1.4-0.1,2.2,0.9,2.2s1.4-0.8,1.7-2.2l4.2-19.9
			c0.3-1.6,0.1-2.1-0.9-2.1C163.5,27.2,163,27.7,162.7,29.4z"/>
		<path class="st0" d="M181.7,42.2l-3.3,15.3H170l7.7-36.2h10.1c6.5,0,8.9,3.5,7.6,9.5l-0.5,2.5c-0.8,3.5-2.4,5.3-4.5,6
			c2.1,1.3,2.4,3.2,1.3,8.5c-1,4.3-1.8,8.3-2,9.7h-8.2c-0.3-0.7,0.2-3.2,1.9-11.4c0.8-3.6,0.3-3.9-1.1-3.9
			C182.3,42.2,181.7,42.2,181.7,42.2z M183.1,36h0.7c1.6,0,2.1-0.6,2.6-2.9l0.6-3c0.4-2.1,0.1-2.7-1.5-2.7H185L183.1,36z"/>
		<g>
			<path class="st0" d="M98.2,85.8l-0.7,3.3c-1.2,5.6-2.7,10.7-11,10.7c-5.9,0-10.1-2-8.2-10.9l3.5-16.7c1.6-7.8,5.1-9.7,10.8-9.7
				c9.2,0,9.3,6,8.4,10.2l-0.7,3.2H92l1-4.6c0.3-1.5,0.2-2.3-0.9-2.3c-0.9,0-1.3,0.5-1.6,2.3l-4.1,19.6c-0.4,1.8-0.2,2.4,0.7,2.4
				c1,0,1.4-0.7,1.8-2.6l1-4.8L98.2,85.8L98.2,85.8z"/>
			<path class="st0" d="M107.4,91.1l-2,8.2h-8.9l11.4-36.2h13.5l-3.9,36.2H109l1.1-8.2H107.4z M111.3,84.3c0.4-2.8,1.6-12,1.8-14
				h-0.4c-0.4,1.6-2.6,10.4-3.5,14H111.3z"/>
			<path class="st0" d="M139.4,90.5c1-4.8,2.8-13.1,3.9-17.9h-0.4c-2.6,8.9-7,24.3-7.6,26.7h-6.1c0.8-5.1,2.8-19.9,3.7-26.9h-0.4
				c-0.9,4.3-2.2,11.5-3.5,17.8l-1.9,9.1h-7.8l7.7-36.2h11.5c-0.3,3.4-1.3,11.6-1.9,15.9h0.3c1.6-5.1,2.5-8.5,4.8-15.9h12L146,99.3
				h-8.3L139.4,90.5z"/>
			<path class="st0" d="M155.2,63.1h9.5c7.6,0,9.2,4.6,8,10.3l-0.8,3.6c-1.3,6.1-3.4,9-10.3,9h-2.8L156,99.3h-8.5L155.2,63.1z
				 M160.3,79.3h0.8c1.4,0,1.9-0.7,2.3-2.5l1-5.1c0.4-1.9-0.1-2.5-1.3-2.5h-0.8L160.3,79.3z"/>
			<path class="st0" d="M184.9,63.1l-6,28.2c-0.3,1.3-0.1,2,0.8,2c1,0,1.3-0.7,1.6-2l6-28.2h8.7l-5.8,27.1
				c-1.4,6.7-3.8,9.5-11.3,9.5c-7.3,0-9.5-3.8-8.2-10l5.7-26.7L184.9,63.1L184.9,63.1z"/>
			<path class="st0" d="M86.5,109.8c-6.7,0-11.8-2.1-15.1-6.1c-3.4-4.2-4.4-9.9-2.9-16.8L72,70.1c0.2-0.9,0.4-1.7,0.6-2.6
				c-2.7-0.3-4.9-1.1-6.7-2c-3,1.6-6.7,2.5-11,2.5c-8.1,0-12.6-3.4-14.9-6.3c-2.4-2.9-4.8-8.1-3.1-16.3l3.8-17.8
				c2.3-10.9,9.5-16.9,20.4-16.9l0.3,0c1.5,0,2.8,0.1,4,0.3l0,0H92v0.1h0.9C83.3,4.2,71.4,0,58.5,0C26.2,0,0,26.2,0,58.5
				C0,90.8,26.2,117,58.5,117c10.2,0,19.8-2.6,28.2-7.2C86.6,109.8,86.6,109.8,86.5,109.8z"/>
			<path class="st0" d="M200.4,87.6l-0.7,3.1c-0.4,2.2-0.2,2.7,0.7,2.7c0.8,0,1.1-0.7,1.5-2.7c0.5-2.7-0.2-4.4-2.6-7.2
				c-3.2-3.8-5.4-6.3-4.1-12.7c1.3-5.9,4-8.3,9.7-8.3c8.8,0,9,5.7,7.8,11l-0.2,1H205l0.6-2.6c0.4-2,0.3-2.9-0.7-2.9
				c-0.5,0-1.1,0.2-1.4,1.7c-0.6,2.8-0.1,3.4,2.2,6.3c4.5,5.5,5.9,7.8,4.6,14.1c-1.3,6.4-4.5,8.6-10.6,8.6c-7.3,0-9.4-3.9-7.8-10.8
				l0.3-1.4h8.2V87.6z"/>
		</g>
	</g>
</g>
</svg>
