<?xml version="1.0" encoding="utf-8"?>
<!-- Generator: Adobe Illustrator 30.2.1, SVG Export Plug-In . SVG Version: 9.03 Build 0)  -->
<svg version="1.1" id="Layer_1" xmlns="http://www.w3.org/2000/svg" xmlns:xlink="http://www.w3.org/1999/xlink" x="0px" y="0px"
	 viewBox="0 0 1077.7 350.6" style="enable-background:new 0 0 1077.7 350.6;" xml:space="preserve">
<style type="text/css">
	.st0{fill-rule:evenodd;clip-rule:evenodd;fill:#FFFFFF;}
</style>
<path class="st0" d="M178.4,0c10.9,0.2,21.6,1.4,32,3.5l0,0c1.7,0.3,3.5,0.7,5.3,1.2l0,0l0.2,0l0,0c8.7,2.1,17.1,4.8,25.2,8.1
	l-0.8-0.2c11.2,4.5,22.8,10.4,34,17.4c-5.7-1.6-11.7-3.3-18-4.9C149.4-2,88.2,78.2,87,149.3c-1.2,71.1,62.2,129.8,141.7,131.2
	c10.5,0.2,20.8-0.7,30.8-2.4c-17.6,7.3-37,11.1-57.3,10.8c-79.5-1.4-141.8-59.6-141.4-146.5c0.2-46.4,27.2-86,60.7-111.2
	c-52.1,28-87.6,80.6-88.7,141.5c-1.6,91.7,75.6,167.5,172.4,169.2c10.4,0.2,20.5-0.5,30.5-2c-19.7,7.2-41,11-63.2,10.6
	C75.5,348.9-1.6,269.1,0.1,172.3C1.8,75.4,81.6-1.7,178.4,0L178.4,0z M351.2,319.9l69.8,1.2l0.2-10.3l-58.6-1l1.4-79.4l-11.2-0.2
	L351.2,319.9L351.2,319.9z M553.1,323.4l-12.1-0.2l-11.8-24.4l-49.6-0.9l-12.3,23.9l-12-0.2l45.6-89l9.3,0.2L553.1,323.4z
	 M524.4,288.2l-19.2-40.1l-20.4,39.4L524.4,288.2z M592.8,310.6c6.8,5.5,14.1,9.6,21.7,12.3c7.6,2.7,15.9,4.2,24.9,4.3
	c11.8,0.2,21.4-2.3,28.8-7.6c7.4-5.3,11.1-12.1,11.3-20.5c0.1-7-2.4-13-7.7-17.9c-5.2-4.9-12.4-8-21.5-9.1
	c-3.1-0.4-7.5-0.9-13.1-1.3c-12.3-1-20.2-2.9-23.8-5.7c-1.4-1.2-2.5-2.4-3.2-3.7c-0.7-1.3-1-2.8-1-4.3c0.1-4,2.3-7.2,6.7-9.8
	c4.5-2.6,10.1-3.8,16.8-3.7c6.4,0.1,12.7,1.4,18.8,3.7c6.1,2.4,11.8,5.8,17.3,10.4l6.7-9.2c-6.5-4.9-13.3-8.7-20.6-11.3
	c-7.3-2.6-14.6-3.9-22.1-4.1c-10.3-0.2-18.7,2-25.2,6.6c-6.5,4.6-9.9,10.5-10,17.7c-0.1,4,1,7.5,3.1,10.8c2.1,3.2,5.3,5.8,9.4,7.9
	c5.3,2.5,15.4,4.4,30.1,5.7c3,0.2,5.2,0.4,6.8,0.6c6.5,0.7,11.6,2.5,15.3,5.3c3.7,2.9,5.5,6.5,5.4,10.9c-0.1,5.5-2.8,10-8,13.4
	c-5.2,3.4-12,5.1-20.3,4.9c-6.7-0.1-13.5-1.5-20.3-4.2c-6.8-2.7-13.3-6.6-19.6-11.6L592.8,310.6L592.8,310.6z M734.9,326.6l11.3,0.2
	l0.8-44l53,0.9l-0.8,44l11.2,0.2l1.6-89.8l-11.2-0.2l-0.6,35.5l-53-0.9l0.6-35.5l-11.3-0.2L734.9,326.6L734.9,326.6z M871.9,328.9
	l74.3,1.3l0.2-10.3l-63.1-1.1l0.6-32.5l36,0.6l0.2-10.3l-36-0.6l0.5-26.3l59.4,1l0.2-10.3l-70.6-1.2L871.9,328.9L871.9,328.9z
	 M988.9,317.5c6.8,5.5,14.1,9.6,21.7,12.3c7.6,2.7,15.9,4.2,24.9,4.3c11.8,0.2,21.4-2.3,28.8-7.6c7.4-5.3,11.2-12.1,11.3-20.5
	c0.1-7-2.4-13-7.7-17.9c-5.2-4.9-12.4-8-21.5-9.1c-3.1-0.4-7.5-0.9-13.1-1.3c-12.3-1-20.2-2.9-23.8-5.7c-1.4-1.2-2.5-2.4-3.2-3.7
	c-0.7-1.3-1-2.8-1-4.3c0.1-4,2.3-7.2,6.7-9.8c4.5-2.6,10.1-3.8,16.8-3.7c6.4,0.1,12.7,1.4,18.8,3.7c6.1,2.4,11.8,5.8,17.3,10.4
	l6.7-9.2c-6.5-4.9-13.3-8.7-20.6-11.3c-7.3-2.6-14.6-3.9-22.1-4.1c-10.3-0.2-18.7,2-25.2,6.6c-6.5,4.6-9.9,10.5-10,17.7
	c-0.1,4,1,7.5,3.1,10.8c2.1,3.2,5.3,5.8,9.4,7.9c5.3,2.5,15.4,4.4,30.1,5.7c3,0.2,5.2,0.4,6.8,0.6c6.5,0.7,11.6,2.5,15.3,5.3
	c3.7,2.9,5.5,6.5,5.4,10.9c-0.1,5.5-2.8,10-8,13.4c-5.2,3.4-12,5.1-20.3,4.9c-6.7-0.1-13.5-1.5-20.3-4.2
	c-6.8-2.7-13.3-6.6-19.6-11.6L988.9,317.5L988.9,317.5z M382.8,97.5l40.1,83.8l27.7,0.5l43-82.4l-1.5,83.1l27.7,0.5l2.4-138.5
	L494.6,44l-57.2,102.9L383.7,42.1L356,41.6l-2.4,138.5l27.7,0.5L382.8,97.5L382.8,97.5z M595.5,184.4l31.2,0.5l39.5-79l36.7,80.3
	l31.2,0.5L667.3,40.1L595.5,184.4L595.5,184.4z M823.8,123.4l-1.1,64.9l27.7,0.5l1.1-65.2l56.7-72.4l-34.6-0.6l-35.5,45.5
	l-33.8-46.7l-34.7-0.6L823.8,123.4L823.8,123.4z M939,190.4l31.2,0.5l39.5-79l36.7,80.3l31.2,0.5l-66.7-146.7L939,190.4L939,190.4z"
	/>
</svg>
