<?xml version="1.0" encoding="utf-8"?>
<!-- Generator: Adobe Illustrator 30.5.1, SVG Export Plug-In . SVG Version: 9.03 Build 0)  -->
<svg version="1.1" id="Layer_1" xmlns="http://www.w3.org/2000/svg" xmlns:xlink="http://www.w3.org/1999/xlink" x="0px" y="0px"
	 viewBox="0 0 436 139.1" style="enable-background:new 0 0 436 139.1;" xml:space="preserve">
<style type="text/css">
	.st0{fill:#FFFFFF;}
</style>
<g>
	<g>
		<path class="st0" d="M135.1,53.1c-1.2-0.7-2.6-1.6-4.9-3.1c2.1-0.7,3.3-1,4.5-1.4c2.8-1.1,5.9-1.8,8.3-3.5
			c3.6-2.6,6.2-2.3,9.4,0.6c1.6,1.4,4.2,2.6,6.3,2.6c11.7-0.2,23.3-0.9,35-1.2c3.3-0.1,4.8-1.7,6.5-4.3c6.8-10.5,13.8-21,21-31.2
			c2.4-3.4,5.8-6.3,9.1-8.8c5.2-4,10.1-3.6,14.4,0.4c4.5,4.2,5.4,8.7,1.3,14.2c-5.5,7.4-11.6,14.2-17.6,21.1
			c-1.8,2.1-4.1,3.7-7.3,6.5c13.6,1,26.4-4.9,37.8,6.7c-3.4,0.4-5.3,0.9-7.3,0.9c-11,0-21.9-0.3-32.9,0c-2.7,0.1-5.7,1.4-7.9,3
			c-4.1,3-8,6.5-11.7,10c-1.9,1.8-3.3,4.2-3.9,7.1c4.7-4.4,9.3-9,14-13.3c2.4-2.2,5.1-4.5,8.3-1.3c2.9,2.9,4.8,6.1,1.5,10.2
			c-2.7,3.3-4.9,6.8-7.3,10.3c0.4,0.5,0.8,1,1.1,1.5c8.2-5.8,16.4-11.6,24.6-17.3c0.7,1.3,1.1,1.7,1.1,1.9
			c-4.9,9.1-11.6,16.5-21.5,19.9c-6.8,2.3-11.2-1.3-13.6-10.6c-2.1,1.9-3.9,3.7-5.9,5.3c-1.9,1.6-3.7,3.4-5.8,4.4
			c-5.1,2.4-7.8,0.6-9-5.2c-14.8,12.6-26.8,12.3-32.1-0.7c-4.4,2.6-8.5,5.8-13.2,7.5c-5.2,2-8-0.2-11.2-7c-1.1,1.2-2.2,2.3-3.1,3.5
			c-3.4,4.6-7.6,4.9-12.1,2.2c-2.5-1.6-4.1-1.4-6.5,0.4c-4.3,3.3-8.6,2.6-13.4-1.3c-4.1-3.4-5.4-7.7-2.6-12.2
			c2.7-4.5,6.2-8.5,9.5-12.6c0.7-0.9,2-1.7,3.1-1.9c1.5-0.2,3.2-0.2,4.6,0.4c5,1.9,10,4,14.7,6.5c0.7,0.4,0.4,3.6-0.2,5.2
			c-1.2,3.1-3,5.9-4.5,8.8c0.4,0.4,0.8,0.7,1.2,1.1c3.8-3.5,8.3-6.5,11.4-10.6C131.2,63.4,132.8,58.1,135.1,53.1z M132.8,80.4
			c1.8-0.3,2.8-0.2,3.3-0.6c6.8-5.6,14.1-10.6,20-17c6.6-7.2,10.2-8.6,17.8-2.8c2.2,1.7,4.9,5.6,4.3,7.4c-1.1,3.3-4.3,6.1-7.2,8.4
			c-0.8,0.7-3.4-0.7-5.2-1.2c0.5-1.5,0.6-3.2,1.4-4.5c1.3-2.1,3-3.9,4.5-5.8c-0.7-0.4-1.4-0.9-2-1.3c-2.5,4.2-5.2,8.3-7.4,12.7
			c-0.8,1.5-0.3,3.6-0.4,5.5c1.9,0,4,0.5,5.6-0.2c12.8-5.6,22.6-14.1,26.5-28.7c-7.8,0-15.5-0.1-23.2,0
			c-20.7,0.4-21.5,0.9-33.3,18.1c-1,1.5-2,2.9-2.7,4.5C134,76.5,133.6,78.1,132.8,80.4z M210.9,44.9c0.6,0.5,1.2,1,1.8,1.6
			c11-12.4,22.9-24,30.6-39c-0.7-0.6-1.4-1.1-2.1-1.7C231,18.8,221,31.9,210.9,44.9z M95.8,80.2c6.2-0.6,12.6-9.4,12.3-17.1
			C101.9,67.6,98.5,73.3,95.8,80.2z"/>
	</g>
	<g>
		<path class="st0" d="M402.5,66.4c1.5-1.7,2.8-3.9,4.7-4.9c2-1.2,4.9-2.2,7-1.7c6.3,1.6,6.9,4.1,3,9.4c-2.4,3.1-4.8,6.2-7.3,9.3
			c0.4,0.5,0.8,0.9,1.2,1.4c8-5.5,15.9-11,23.9-16.6c0.3,0.2,0.6,0.4,1,0.6c-0.7,1.6-1,3.6-2.2,4.7c-5.5,5.5-11,11-16.9,16.1
			c-4.2,3.6-8.7,3.4-13.6,0.1c-4-2.7-5-6.2-2.4-10.7c-0.5-0.2-1-0.4-1.5-0.6c-3.8,4.7-8.3,8.9-11.3,14.1
			c-8.9,15.1-17.2,30.5-25.7,45.7c-0.4,0.8-0.9,1.6-1.2,2.4c-1.6,3.4-4.4,4.2-7.5,2.8c-3.4-1.5-2.2-4.4-1-6.8
			c7.7-14.7,15.4-29.4,23.2-44.1c0.8-1.5,1.6-3,2.1-5.1c-5.5,5.3-11.3,6.6-17.6,2c-3.6-2.6-4-4.3-3.5-11c-3.8,4.6-8.3,8.9-11.3,14
			c-8.9,15.1-17.2,30.5-25.7,45.7c-0.6,1.1-0.9,2.7-1.8,3.2c-2.1,1-4.6,1.5-6.9,2.2c-0.4-2.1-1.8-4.8-1.1-6.3
			c7.2-14.4,14.6-28.7,22.3-42.8c7.3-13.3,15.1-26.4,22.7-39.5c1.7-2.9,3.4-6.2,7.8-3.3c4.1,2.7,4.7,5.3,1.9,9.7
			c-1.9,3.1-3.9,6.1-5.8,9.2c0.5,0.4,0.9,0.8,1.4,1.1c1.5-1.8,2.7-4.1,4.6-5.4c1.6-1.2,4.2-2.1,6-1.8c6.8,1.3,7.8,4.4,3.6,9.9
			c-2.3,3.1-4.8,6-6.7,9.6c8-3.9,16.1-7.6,21.3-15.2c3.4-4.9,6.3-10.2,9.5-15.3c1.6-2.6,3.7-4,6.5-1.9c2.7,2.1,5.6,4.3,3.1,8.3
			c-2.2,3.6-4.5,7.1-6.7,10.6C401.9,65.8,402.2,66.1,402.5,66.4z"/>
	</g>
	<g>
		<path class="st0" d="M320.5,73c-12.7,3.7-25.5,6.9-37.9,11.1c-10.2,3.5-19.9,8.3-29.9,12.2c-4.6,1.8-6.3,5.2-7.4,9.5
			c-0.6,2.3-0.9,5.2-4.7,4.2c-3.1-0.8-5.9-2.2-5.6-5.9c0.3-3.3,0.5-6.9,2-9.8c18.8-37.1,46.9-63.9,87.4-75.9
			c5.9-1.8,12.6-1.8,18.9-1.6c10.2,0.4,15,7,11.5,16.6c-3.9,10.6-8.5,21-13.8,30.9c-6.7,12.6-14.3,24.8-21.8,37
			c-1.2,1.9-3.4,4-5.5,4.4c-2.5,0.5-5.3-0.7-8-1.2c0.7-2.2,1-4.6,2.1-6.5c4.4-7.8,9.1-15.5,13.7-23.2
			C321.2,74.2,320.9,73.6,320.5,73z M252.7,89.3c0.2,0.2,0.4,0.5,0.7,0.7c0.7-0.3,1.5-0.5,2.2-0.9c21.6-11,44.2-19.6,67.9-24.8
			c1.3-0.3,3-1,3.5-2c5.6-10.6,11.6-21,16.3-32c3.4-7.8-0.2-11.3-8.7-10.2c-11.6,1.5-21.4,7-30.6,13.7
			c-17.7,12.9-32.1,29.2-45.2,46.7C256.8,83.3,254.8,86.3,252.7,89.3z"/>
	</g>
	<g>
		<path class="st0" d="M113,102.1c-2.4-0.8-4.8-1.4-7.1-2.3c-18-7.6-36.3-14.1-55.7-16.7c-7.6-1-15.5-0.5-23.2-0.8
			c-3.1-0.1-6.1-0.3-10-0.5C13,87.7,11.9,98,0.1,97.9c0-0.9-0.3-1.8,0-2.5c7.9-18.3,15.6-36.7,24.1-54.7c2.3-5,6.6-9.1,10.4-13.3
			c1.4-1.5,4-2.8,6-2.7c2.2,0.2,4.4,1.8,6.1,3.4c0.4,0.4-1.2,3.3-2.3,4.6C36.2,42.5,29,52.9,23.8,66.2C56,48,87,30.4,119,12.3
			c-0.2,9-2.4,15.7-8.7,19.9c-6.7,4.5-13.9,8.5-21.2,12c-15.4,7.6-31,14.7-46.4,22.1c-4.6,2.2-8.9,5-14.6,8.2
			C60,75.4,86.9,87.4,113.6,100C113.4,100.7,113.2,101.4,113,102.1z"/>
	</g>
</g>
</svg>
