<?xml version="1.0" encoding="utf-8"?>
<!-- Generator: Adobe Illustrator 30.5.1, SVG Export Plug-In . SVG Version: 9.03 Build 0)  -->
<svg version="1.1" id="Layer_1" xmlns="http://www.w3.org/2000/svg" xmlns:xlink="http://www.w3.org/1999/xlink" x="0px" y="0px"
	 viewBox="0 0 1105.1 399.5" style="enable-background:new 0 0 1105.1 399.5;" xml:space="preserve">
<style type="text/css">
	.st0{fill:#FFFFFF;}
</style>
<g>
	<polygon class="st0" points="0,399.5 0,0 832,0 832,97.5 811.7,97.5 811.7,20.3 20.3,20.3 20.3,379.2 811.7,379.2 811.7,284.2 
		832,284.2 832,399.5 	"/>
	<path class="st0" d="M286.4,262.6l-134.2-98v98h-20.7V136.8H152l125.3,93.5v-93.5H298v125.9H286.4z"/>
	<path class="st0" d="M359.9,262.6c-28.6,0-39.5-12.3-39.5-30.4v-65.1c0-18,10.9-30.4,39.5-30.4H443c28.6,0,39.5,12.3,39.5,30.4
		v65.1c0,18-10.9,30.4-39.5,30.4H359.9L359.9,262.6z M458.7,167c0-7.5-5-11.6-15.7-11.6h-83.1c-10.7,0-15.7,4.1-15.7,11.6v65.4
		c0,7.5,5,11.6,15.7,11.6H443c10.7,0,15.7-4.1,15.7-11.6V167z"/>
	<path class="st0" d="M674.5,262.6v-88.1l-64,88.1H591l-64.2-88v88h-22V136.8H527l74.7,102.8l74.4-102.8h20.4v125.9H674.5
		L674.5,262.6z"/>
	<path class="st0" d="M847.9,195.6l-12.7-19.3l-0.9-1.4l-12.6-19l-12.6-19h-17.3l-83.7,125.9h26.5l66-101.4l8.6,13.5l12.5,19.5
		l0.8,1.2l12.7,19.8l30.3,47.4h26.8L847.9,195.6L847.9,195.6z"/>
	<polygon class="st0" points="851.7,136.8 834.3,136.8 824.6,151.4 825.8,153.1 837.2,170.4 843.1,161.3 908,262.7 934.8,262.7 	"/>
	<path class="st0" d="M943.3,262.6V136.8h115.3c35.6,0,46.5,12.3,46.5,37.2v52.7c0,23.6-10.9,35.9-46.5,35.9L943.3,262.6
		L943.3,262.6z M1081.3,174c0-14.5-5-18.6-22.7-18.6h-91.5v88.7h91.5c17.7,0,22.7-4.1,22.7-17.5V174L1081.3,174z"/>
</g>
</svg>
