<?xml version="1.0" encoding="utf-8"?>
<!-- Generator: Adobe Illustrator 30.5.1, SVG Export Plug-In . SVG Version: 9.03 Build 0)  -->
<svg version="1.1" id="Layer_1" xmlns="http://www.w3.org/2000/svg" xmlns:xlink="http://www.w3.org/1999/xlink" x="0px" y="0px"
	 viewBox="0 0 290.6 212.2" style="enable-background:new 0 0 290.6 212.2;" xml:space="preserve">
<style type="text/css">
	.st0{enable-background:new    ;}
	.st1{fill:#D3D3D3;}
	.st2{fill:#D8D8D8;}
	.st3{fill:#DDDDDD;}
	.st4{fill:#FFFFFF;}
</style>
<g>
	<g class="st0">
		<polygon class="st1" points="58.3,151.4 82.1,136.5 82.3,197.1 58.4,212.2 		"/>
		<polygon class="st2" points="0.8,151.4 24.8,136.5 82.1,136.5 58.3,151.4 		"/>
		<polygon class="st3" points="58.3,151.4 58.4,212.2 0.9,212.2 0.8,151.4 		"/>
	</g>
	<g class="st0">
		<polygon class="st1" points="68.8,86.2 95.1,77.5 82.1,136.5 55.7,145.3 		"/>
		<polygon class="st2" points="13.2,72.1 39.6,63.5 95.1,77.5 68.8,86.2 		"/>
		<polygon class="st3" points="68.8,86.2 55.7,145.3 0,131.1 13.2,72.1 		"/>
	</g>
	<g class="st0">
		<polygon class="st1" points="86.9,26.1 113.9,20.8 95.1,77.5 68,83 		"/>
		<polygon class="st2" points="33.1,5.2 60.2,0 113.9,20.8 86.9,26.1 		"/>
		<polygon class="st3" points="86.9,26.1 68,83 14.2,62 33.1,5.2 		"/>
	</g>
	<g>
		<path class="st4" d="M139.6,99.2c7.4-4.4,11.8-11.9,11.8-21.1c0-15.6-11.7-26.4-27.7-26.4H96.9l-5.5,9.4v65.2h20.6v-22.8h7.4
			l12.1,22.8h22.9L139.6,99.2L139.6,99.2z M121.3,86.2h-9.4V70h9.4c5.7,0,9,3.4,9,8.1S127,86.2,121.3,86.2z"/>
		<path class="st4" d="M205.1,108.5v17.8h-48.6V51.7h47.7v17.8h-27.3v11h24.5v16.9h-24.5v11.2L205.1,108.5L205.1,108.5z"/>
		<path class="st4" d="M119.3,183.4h-7.4v22.8H91.3v-74.6h32.3c16.1,0,27.7,10.8,27.7,26.4c0,9.1-4.5,16.6-11.8,21.1l14.8,27.1
			h-22.9L119.3,183.4L119.3,183.4z M111.9,166.1h9.4c5.7,0,9-3.5,9-8.1s-3.3-8.1-9-8.1h-9.4L111.9,166.1L111.9,166.1z"/>
		<path class="st4" d="M156.8,131.7h20.8v74.6h-20.8L156.8,131.7L156.8,131.7z"/>
		<path class="st4" d="M179.9,182.2h21.2c0,5.3,4.1,7.9,8.8,7.9c4.3,0,8.4-2.3,8.4-6.4c0-4.7-5.8-6-12.9-7.8
			c-10.8-2.7-24.5-6-24.5-23c0-14.7,10.8-23.1,28.4-23.1s28.1,9.2,28.1,24.4h-20.6c0-4.7-3.5-6.9-7.8-6.9c-3.7,0-7.2,1.6-7.2,5.1
			c0,4.2,5.6,5.6,12.6,7.4c11,2.8,25.3,6.5,25.3,23.5s-12.5,24.7-29.8,24.7C191.7,208.1,179.9,198.4,179.9,182.2L179.9,182.2z"/>
		<path class="st4" d="M290.6,188.4v17.8H242v-74.6h47.7v17.8h-27.3v11h24.5v16.9h-24.5v11.2L290.6,188.4L290.6,188.4z"/>
	</g>
</g>
</svg>
