<?xml version="1.0" encoding="utf-8"?>
<!-- Generator: Adobe Illustrator 30.5.1, SVG Export Plug-In . SVG Version: 9.03 Build 0)  -->
<svg version="1.1" id="Layer_1" xmlns="http://www.w3.org/2000/svg" xmlns:xlink="http://www.w3.org/1999/xlink" x="0px" y="0px"
	 viewBox="0 0 459.5 101.8" style="enable-background:new 0 0 459.5 101.8;" xml:space="preserve">
<style type="text/css">
	.st0{fill:#FFFFFF;}
</style>
<g>
	<polygon class="st0" points="459.5,92 459.5,92.1 459.5,92 	"/>
	<path class="st0" d="M456.8,94.3l-18.3,7.5h-3V88.9c-5.3,5.7-9.3,9.2-12,10.7c-2.8,1.5-5.7,2.2-8.8,2.2c-3.4,0-6.4-1-8.9-2.9
		s-4.3-4.5-5.3-7.7c-1-3.1-1.5-7.4-1.5-13.1V51c0-2-0.2-3.6-0.5-4.9c-0.3-1.2-0.9-2.2-1.6-2.8c-0.7-0.7-1.7-1.1-3-1.3
		c-1.2-0.2-2.7-0.3-4.4-0.3h-0.8v-2.5h21.4v40.7c0,2.9,0.3,5.3,0.9,7.1s1.3,3.2,2.2,4.2c0.9,1,2,1.7,3.2,2s2.5,0.5,3.8,0.5
		c0.9,0,2-0.1,3-0.4c1.1-0.3,2.3-0.7,3.5-1.4s2.5-1.6,4-2.7c1.4-1.1,3-2.5,4.7-4.2V50.6c0-1.7-0.1-3.2-0.4-4.3
		c-0.3-1.1-0.8-2-1.5-2.7s-1.7-1.2-3-1.5s-2.9-0.4-4.9-0.5v-2.5h20.9v36.8c0,7.1,0.1,11.4,0.5,12.9s0.9,2.6,1.6,3.3
		c0.7,0.6,1.6,0.9,2.6,0.9c1.3,0,2.9-0.4,4.6-1.1L456.8,94.3L456.8,94.3z"/>
	<path class="st0" d="M387.7,92.1L387.7,92.1c-2.1,0.7-3.7,1.1-4.8,1.1c-1,0-1.8-0.3-2.6-0.9c-0.7-0.6-1.3-1.7-1.6-3.2
		c-0.3-1.5-0.5-5.9-0.5-13.1V5.7h-3L357,13.1l0.9,2.3c1.9-0.7,3.4-1.1,4.6-1.1c1.5,0,2.6,0.3,3.3,0.8c0.7,0.6,1.1,1.3,1.3,2.1
		c0.2,0.9,0.3,1.7,0.2,2.7c-0.1,1-0.1,1.8-0.1,2.6v19.9c-3.6-3.4-8-5.1-13.4-5.1c-8.6,0-15.7,3.6-21.3,10.9
		c-5.5,7.2-8.3,15.2-8.3,23.9c0,4.3,0.7,8.3,2,11.9c1.4,3.6,3.2,6.8,5.5,9.4c2.3,2.6,4.9,4.7,7.9,6.2s6.2,2.2,9.5,2.2
		c3.4,0,6.4-0.7,9.2-2c2.8-1.4,5.7-3.6,8.7-6.7v8.7h3.1l18.2-7.5L387.7,92.1L387.7,92.1z M367.1,88.5c-3.8,4-7.7,6-11.8,6
		c-2.4,0-4.7-0.6-6.9-1.8c-2.3-1.2-4.3-3-6.1-5.3c-1.8-2.3-3.2-5.2-4.3-8.7c-1.1-3.4-1.6-7.4-1.6-11.9c0-3.8,0.4-7.3,1.3-10.4
		s2-5.8,3.5-8s3.2-4,5.3-5.2c2-1.2,4.2-1.8,6.6-1.8c1.6,0,3.2,0.3,4.8,1c1.6,0.7,3,1.7,4.3,3c1.3,1.4,2.4,3,3.4,4.9
		c0.9,1.9,1.5,4.2,1.7,6.7L367.1,88.5L367.1,88.5z"/>
	<path class="st0" d="M313.5,77.4L313.5,77.4c-1.4,2.8-2.8,5.2-4.3,7.3c-1.4,2.1-2.8,3.8-4.2,5.1c-1.1,1.1-2.2,1.9-3.2,2.6
		c-1,0.7-2.2,1.2-3.5,1.6c-1.3,0.4-2.9,0.6-4.6,0.8c-1.8,0.1-4,0.2-6.6,0.2h-15.4c-1.2,0-2.3-0.1-3.1-0.2c-0.8-0.1-1.5-0.3-2-0.6
		s-0.9-0.5-1.2-0.9c-0.3-0.4-0.5-0.7-0.7-1.1c-0.4-0.9-0.6-3.4-0.6-7.3V55.2H284c1.9,0,3.5,0.1,4.9,0.3c1.4,0.2,2.5,0.5,3.5,1
		c1,0.4,1.8,1,2.4,1.6s1.1,1.3,1.5,2.1c0.3,0.6,0.6,1.6,0.9,3s0.6,3.2,0.9,5.4h2.5V37.4h-2.1c-0.1,2.3-0.4,4.2-0.8,5.8
		c-0.4,1.6-1.1,3-2.1,4.1s-2.4,1.9-4.3,2.4c-1.8,0.5-4.2,0.8-7,0.8h-19.9V14.9h24.9c4.5,0,7.6,0.3,9.4,1c1.1,0.5,2.1,1,2.9,1.6
		s1.5,1.4,2.1,2.4s1.2,2.3,1.7,3.8c0.5,1.6,1,3.5,1.5,5.9h1.6V10h-70v2.5h3.2c3.7,0,6.4,0.9,8,2.7c1.1,1.4,1.7,4.9,1.7,10.5v58.5
		c0,4.4-0.3,7.3-0.8,8.7c-0.3,0.8-0.7,1.5-1.4,2.1c-0.7,0.6-1.4,1.1-2.2,1.5s-1.7,0.7-2.7,0.9c-0.9,0.2-1.8,0.3-2.7,0.3h-3.1v2.5
		h69.8l7.8-22.6L313.5,77.4L313.5,77.4z"/>
	<path class="st0" d="M224.5,73.4v-65l-53.6,76.8h39.7v15.4h13.9V85.2h12.6V73.4H224.5L224.5,73.4z M211.5,74.3h-20.7l20.7-30V74.3z
		"/>
	<path class="st0" d="M85.4,99.1L43,7.6L0,100.5h16.7l10-22.6h32.4l10.1,22.6H86L85.4,99.1L85.4,99.1z M31,65.3l12-27.9l12,27.9H31z
		"/>
	<path class="st0" d="M178.7,100.5h-16.6l-23.9-29.4v29.4h-13.3V19.1L138.2,0v63l18.5-26.3h15.5l-21.1,29.8L178.7,100.5L178.7,100.5
		z"/>
	<path class="st0" d="M110.5,64.4c-3.3-2.6-7.3-3.9-11-5.8c-4.2-2.1-7.7-6-7.7-11c0-2.1,0.6-4,1.6-5.7c-5.2,1-9.7,4.8-10.8,9.9
		c-1.1,4.6,0.6,9.6,4.4,13.3c2.8,2.7,6.1,4.3,9.3,5.6h0.1l0.5,0.2c2.1,0.9,4.1,1.8,5.5,2.9c1.9,1.5,3.1,4,3.1,6.5
		c0,2.4-1.3,4.9-3.3,6.4c-2.2,1.7-5.5,2.4-9.2,2.1c0,0-3.3-0.4-9.2-2.8L89,97.1l1.8,3.9c0.4,0.1,0.8,0.1,1.3,0.1
		c0.8,0.1,1.6,0.1,2.4,0.1c6,0,11.5-1.7,15.6-4.8c5.1-3.8,8.1-9.8,8.2-16C118.4,74.4,115.5,68.3,110.5,64.4L110.5,64.4L110.5,64.4z"
		/>
	<path class="st0" d="M111,47.8c0,1-0.2,2-0.6,2.9c-0.6,1.2-1.5,2.3-2.6,3.1c-1,0.6-2.1,1.1-3.4,1.2c-0.3,0-0.5,0-0.8,0
		c-4.1,0-7.4-3.2-7.4-7.2c0-2.3,1.1-4.4,2.9-5.7c1.3-0.9,2.8-1.5,4.5-1.5C107.7,40.5,111,43.8,111,47.8L111,47.8z"/>
</g>
</svg>
