<?xml version="1.0" encoding="utf-8"?>
<!-- Generator: Adobe Illustrator 30.5.1, SVG Export Plug-In . SVG Version: 9.03 Build 0)  -->
<svg version="1.1" id="Layer_1" xmlns="http://www.w3.org/2000/svg" xmlns:xlink="http://www.w3.org/1999/xlink" x="0px" y="0px"
	 viewBox="0 0 756.4 357.8" style="enable-background:new 0 0 756.4 357.8;" xml:space="preserve">
<style type="text/css">
	.st0{fill:#FFFFFF;}
</style>
<g>
	<g>
		<g>
			<path class="st0" d="M0,205.3c0-46.1,33.2-78.7,74.7-78.7c24.9,0,46.4,11.5,57.2,29.5c-0.3-10.6-0.6-21.2-0.6-32.3V0h18.3v280.6
				h-16.9v-28c-10.3,18.9-32.6,30.9-58.1,30.9C33.2,283.4,0,250.8,0,205.3z M76.7,266c30.6,0,56.4-21.2,56.4-60.7
				c0-39.8-25.8-61.2-56.4-61.2c-33.5,0-58.1,25.8-58.1,61.2C18.6,240.5,43.2,266,76.7,266z"/>
			<path class="st0" d="M182,205.6c0-43.8,31.5-78.4,74.7-78.4c37.2,0,70.1,25.2,71.3,77.9H199.8v0.9c0,33.8,23.5,60.4,59,60.4
				c24.3,0,44.1-12.3,55.2-32.6l13.7,8.9c-11.5,20-34.1,40.7-69.3,40.7C212.6,283.2,182,249.1,182,205.6z M309.1,189.8
				c-5.7-32-28-46.1-52.7-46.1c-28.9,0-49.8,19.8-55.2,46.1L309.1,189.8L309.1,189.8z"/>
			<path class="st0" d="M352,280.6V264c11.5,1.2,22,1.7,28.3,1.7c22.6,0,33.8-7.7,33.8-23.8c0-11.5-6.3-19.2-22.3-29.2l-10.3-6.6
				c-20.9-12.9-30.3-25.2-30.3-41.5c0-22.3,17.7-36.6,46.9-36.6c6,0,14.6,0.6,22.6,1.4v15.5c-8.6-0.9-15.2-1.1-19.8-1.1
				c-20.6,0-31.8,7.7-31.8,20.9c0,10,6.9,17.8,23.2,27.8l10.9,6.9c20.6,13.2,29.5,25.2,29.5,42.4c0,25.2-19.2,40.7-51.8,40.7
				C374.1,282.3,363.2,281.4,352,280.6z"/>
			<path class="st0" d="M462.2,129.4h18.3v151.1h-18.3V129.4z"/>
			<path class="st0" d="M512.9,205.3c0-45.5,32.9-78.7,76.4-78.7s76.4,33.2,76.4,78.7c0,44.9-32.9,78.4-76.4,78.4
				S512.9,250.2,512.9,205.3z M589.3,266c33.2,0,57.8-25.5,57.8-60.7c0-35.5-24.6-61.2-57.8-61.2c-33.2,0-57.8,25.8-57.8,61.2
				C531.5,240.5,556.1,266,589.3,266z"/>
			<path class="st0" d="M740.4,129.4h16v17.2h-14.3c-19.2,0-26.9,6.9-26.9,27.5v183.7h-18.3V174.1
				C696.9,143.8,710.7,129.4,740.4,129.4z"/>
		</g>
		
			<rect x="451.9" y="53.7" transform="matrix(0.7071 -0.7071 0.7071 0.7071 85.3709 357.0603)" class="st0" width="43.5" height="43.5"/>
	</g>
	<g>
		<path class="st0" d="M130.3,356.6v-3h2.7v-28.5h-2.7v-3h10.3c2.4,0,4.6,0.4,6.7,1.2c2.1,0.8,3.9,2,5.5,3.5s2.8,3.3,3.7,5.4
			c0.9,2.1,1.4,4.5,1.4,7.2c0,1.9-0.3,3.9-1,6s-1.8,3.9-3.3,5.5c-1.5,1.7-3.5,3-5.9,4.1s-5.4,1.6-8.8,1.6L130.3,356.6L130.3,356.6z
			 M136.1,353.6h3.8c2.3,0,4.4-0.4,6.2-1.1s3.4-1.8,4.8-3.1c1.2-1.3,2.2-2.8,2.9-4.5c0.7-1.7,1-3.6,1-5.6c0-2.2-0.4-4.1-1.1-5.9
			c-0.8-1.8-1.8-3.3-3-4.5c-1.4-1.2-2.9-2.2-4.6-2.8c-1.8-0.7-3.6-1-5.6-1h-4.3V353.6z"/>
		<path class="st0" d="M166.3,356.6v-3h3.6v-12.5h-3.6v-3h6.7v15.5h3.5v3H166.3z M173,332.8c-0.4,0.4-0.9,0.6-1.4,0.6
			s-1-0.2-1.5-0.6c-0.4-0.4-0.7-0.9-0.7-1.5c0-0.6,0.2-1.1,0.7-1.5c0.4-0.4,0.9-0.6,1.5-0.6c0.5,0,1,0.2,1.4,0.6
			c0.4,0.4,0.6,0.9,0.6,1.5C173.6,331.9,173.4,332.4,173,332.8z"/>
		<path class="st0" d="M194.6,356.4c-0.8,0.4-1.8,0.6-3,0.6c-1.1,0-2.2-0.1-3.3-0.4c-1.1-0.3-2-0.8-2.7-1.5v-4h2.8v2.2
			c0.5,0.3,1,0.5,1.5,0.5c0.5,0.1,1.1,0.1,1.8,0.1c0.4,0,0.7,0,1.1-0.2c0.4-0.1,0.7-0.3,1-0.5c0.2-0.2,0.4-0.5,0.6-0.8
			s0.2-0.7,0.2-1.2c0-0.7-0.2-1.3-0.6-1.7s-0.9-0.7-1.5-0.9c-0.6-0.3-1.3-0.5-2-0.7c-0.7-0.2-1.4-0.5-2.1-0.9
			c-0.6-0.4-1.1-0.9-1.6-1.5c-0.4-0.6-0.6-1.5-0.6-2.6c0-1,0.2-1.8,0.5-2.4c0.4-0.7,0.8-1.2,1.4-1.6s1.2-0.8,1.9-1
			c0.7-0.2,1.3-0.3,1.9-0.3c0.4,0,0.8,0,1.2,0.1c0.4,0.1,0.9,0.2,1.4,0.3c0.5,0.2,0.9,0.4,1.4,0.6c0.4,0.2,0.8,0.5,1.2,0.9v4h-2.8
			v-2.4c-0.3-0.2-0.7-0.3-1-0.4c-0.4-0.1-0.8-0.1-1.2-0.1c-0.4,0-0.7,0-1.1,0.2c-0.3,0.1-0.6,0.2-0.9,0.4c-0.2,0.2-0.4,0.5-0.5,0.8
			s-0.2,0.6-0.1,1c0,0.6,0.3,1,0.7,1.3s1,0.6,1.6,0.8c0.6,0.3,1.3,0.5,2,0.8c0.7,0.3,1.4,0.6,2,1c0.6,0.4,1.1,1,1.5,1.6
			c0.4,0.7,0.6,1.5,0.6,2.6c0,0.5-0.1,1.1-0.3,1.7c-0.2,0.7-0.5,1.3-1,1.9C196,355.5,195.4,356,194.6,356.4z"/>
		<path class="st0" d="M210.1,356.6v-15.4h-4.2v-3h4.2v-12h3.1v12h5.3v3h-5.3v12.4h3.9v3H210.1z"/>
		<path class="st0" d="M226.8,356.6v-3h3.6v-12.5h-3.6v-3h6.7v15.5h3.5v3H226.8z M233.5,332.8c-0.4,0.4-0.9,0.6-1.4,0.6
			s-1-0.2-1.5-0.6c-0.4-0.4-0.7-0.9-0.7-1.5c0-0.6,0.2-1.1,0.7-1.5c0.4-0.4,0.9-0.6,1.5-0.6c0.5,0,1,0.2,1.4,0.6
			c0.4,0.4,0.6,0.9,0.6,1.5C234.1,331.9,233.9,332.4,233.5,332.8z"/>
		<path class="st0" d="M245.4,356.6v-3h3.8v-12.5h-3.4v-3h6l0,1.1c0,0.7,0.1,1.3,0.1,1.8c0,0.5,0.1,1.2,0.1,1.9
			c0.7-1.6,1.7-2.8,3.2-3.8c1.5-0.9,3.1-1.4,4.9-1.4c1.9,0,3.4,0.5,4.5,1.5c1.1,1,1.7,2.3,1.7,4v10.4h3.3v3h-10.2v-3h3.8v-9.2
			c-0.1-1-0.4-1.8-1.1-2.5c-0.6-0.7-1.6-1.1-2.9-1.2c-1,0-1.8,0.2-2.7,0.5s-1.6,0.8-2.2,1.3c-0.7,0.6-1.2,1.2-1.5,2
			c-0.4,0.8-0.6,1.6-0.6,2.5v6.5h3.4v3L245.4,356.6L245.4,356.6z"/>
		<path class="st0" d="M291.1,356.5c-1,0.4-2.1,0.6-3.3,0.6c-1.4,0-2.7-0.2-3.8-0.8s-2.2-1.2-3-2.1c-0.9-0.8-1.6-1.9-2.1-3
			c-0.5-1.2-0.7-2.4-0.7-3.8c0-1.3,0.2-2.6,0.8-3.7s1.2-2.2,2.1-3c0.9-0.9,1.9-1.6,3-2.1s2.5-0.8,3.8-0.8c1.2,0,2.4,0.2,3.4,0.6
			s2,0.9,2.8,1.5v5.3h-2.8v-3.5c-0.5-0.3-1-0.5-1.6-0.7c-0.6-0.2-1.2-0.2-1.8-0.2c-0.9,0-1.8,0.2-2.5,0.4c-0.8,0.3-1.5,0.7-2,1.3
			c-0.7,0.6-1.2,1.3-1.5,2.2c-0.4,0.8-0.5,1.7-0.5,2.7c0,1,0.2,1.8,0.5,2.7c0.3,0.8,0.8,1.5,1.5,2.1c0.6,0.6,1.3,1,2.1,1.3
			c0.8,0.3,1.7,0.5,2.6,0.5c0.8,0,1.6-0.1,2.3-0.4c0.7-0.2,1.4-0.6,1.9-1.1l1.9,2.4C293.1,355.6,292.1,356.1,291.1,356.5z"/>
		<path class="st0" d="M306.5,356.6v-15.4h-4.2v-3h4.2v-12h3.1v12h5.3v3h-5.3v12.4h3.9v3H306.5z"/>
		<path class="st0" d="M323.2,356.6v-3h3.6v-12.5h-3.6v-3h6.7v15.5h3.5v3H323.2z M329.9,332.8c-0.4,0.4-0.9,0.6-1.4,0.6
			s-1-0.2-1.5-0.6c-0.4-0.4-0.7-0.9-0.7-1.5c0-0.6,0.2-1.1,0.7-1.5c0.4-0.4,0.9-0.6,1.5-0.6c0.5,0,1,0.2,1.4,0.6
			c0.4,0.4,0.6,0.9,0.6,1.5C330.5,331.9,330.3,332.4,329.9,332.8z"/>
		<path class="st0" d="M359,349.5c-1.5,2.7-2.9,5.5-4.4,8.3c-1.5-2.8-2.9-5.6-4.4-8.3c-1.4-2.8-2.9-5.5-4.4-8.3h-4v-3h10v3H349
			c1,1.9,2,3.7,3,5.6s1.8,3.7,2.6,5.6c0.7-1.8,1.6-3.6,2.6-5.5c1-1.9,2-3.8,3-5.7h-2.9v-3h10v3h-3.8
			C361.9,344,360.4,346.7,359,349.5z"/>
		<path class="st0" d="M388.9,356.3c-1.1,0.5-2.2,0.7-3.5,0.7c-1.3,0-2.6-0.2-3.8-0.8c-1.2-0.5-2.2-1.2-3.1-2
			c-0.9-0.9-1.6-1.9-2.1-3.1c-0.5-1.2-0.8-2.4-0.8-3.8c0-1.3,0.2-2.6,0.8-3.7s1.2-2.2,2.1-3.1c0.8-0.9,1.9-1.5,3.1-2
			c1.2-0.5,2.5-0.8,3.8-0.8c1,0,2,0.2,2.9,0.6c0.9,0.4,1.8,0.9,2.5,1.6c0.7,0.7,1.3,1.5,1.9,2.4c0.5,0.9,1,1.9,1.2,3
			c-2.4,0.9-4.8,1.8-7.1,2.7c-2.4,0.9-4.7,1.8-7.1,2.7c0.6,1,1.3,1.8,2.3,2.4c1,0.6,2.1,0.9,3.4,0.9c0.9,0,1.7-0.2,2.5-0.5
			c0.8-0.3,1.4-0.8,2-1.3l1.9,2.2C390.9,355.2,389.9,355.9,388.9,356.3z M382.4,341.4c-0.9,0.4-1.6,1-2.2,1.7
			c-0.5,0.6-0.9,1.3-1.1,2.2c-0.3,0.8-0.3,1.7-0.2,2.6c1.9-0.7,3.7-1.4,5.6-2.2c1.8-0.7,3.7-1.4,5.6-2.1c-0.5-0.8-1.2-1.5-2-2
			s-1.7-0.8-2.7-0.8C384.3,340.8,383.3,341,382.4,341.4z"/>
		<path class="st0" d="M422.1,356.6v-3h3.8v-28.5h-3.8v-3H433v3h-4v28.5h4v3L422.1,356.6L422.1,356.6z"/>
		<path class="st0" d="M441.4,356.6v-3h3.8v-12.5h-3.4v-3h6l0,1.1c0,0.7,0.1,1.3,0.1,1.8c0,0.5,0.1,1.2,0.2,1.9
			c0.7-1.6,1.7-2.8,3.2-3.8c1.5-0.9,3.1-1.4,4.8-1.4c1.9,0,3.4,0.5,4.5,1.5c1.1,1,1.7,2.3,1.7,4v10.4h3.3v3h-10.2v-3h3.8v-9.2
			c-0.1-1-0.4-1.8-1.1-2.5s-1.6-1.1-2.9-1.2c-1,0-1.8,0.2-2.7,0.5c-0.8,0.3-1.6,0.8-2.2,1.3c-0.7,0.6-1.2,1.2-1.5,2
			s-0.6,1.6-0.6,2.5v6.5h3.3v3L441.4,356.6L441.4,356.6z"/>
		<path class="st0" d="M478.2,356.6v-15.4H474v-3h4.2v-12h3.1v12h5.3v3h-5.3v12.4h3.9v3H478.2z"/>
		<path class="st0" d="M508.2,356.3c-1.1,0.5-2.2,0.7-3.5,0.7c-1.3,0-2.6-0.2-3.8-0.8s-2.2-1.2-3.1-2c-0.9-0.9-1.6-1.9-2.1-3.1
			c-0.5-1.2-0.8-2.4-0.8-3.8c0-1.3,0.2-2.6,0.8-3.7s1.2-2.2,2.1-3.1c0.8-0.9,1.9-1.5,3.1-2c1.2-0.5,2.5-0.8,3.8-0.8
			c1,0,2,0.2,2.9,0.6c0.9,0.4,1.8,0.9,2.5,1.6c0.7,0.7,1.3,1.5,1.9,2.4c0.5,0.9,1,1.9,1.2,3c-2.4,0.9-4.8,1.8-7.1,2.7
			c-2.4,0.9-4.7,1.8-7.1,2.7c0.6,1,1.3,1.8,2.3,2.4c1,0.6,2.1,0.9,3.4,0.9c0.9,0,1.7-0.2,2.5-0.5c0.8-0.3,1.4-0.8,2-1.3l1.9,2.2
			C510.2,355.2,509.3,355.9,508.2,356.3z M501.8,341.4c-0.9,0.4-1.6,1-2.2,1.7c-0.5,0.6-0.9,1.3-1.1,2.2c-0.3,0.8-0.3,1.7-0.2,2.6
			c1.9-0.7,3.7-1.4,5.6-2.2c1.8-0.7,3.7-1.4,5.6-2.1c-0.5-0.8-1.2-1.5-2-2s-1.7-0.8-2.7-0.8C503.6,340.8,502.6,341,501.8,341.4z"/>
		<path class="st0" d="M521.8,356.6v-3h3.8v-12.5h-3.4v-3h6.1l0.2,2.6c0.1,0.7,0.1,1.1,0.1,1.1s0,0.4,0.1,1.1
			c0.4-0.8,0.9-1.5,1.5-2.2s1.2-1.2,1.9-1.6c0.7-0.5,1.4-0.8,2-1c0.7-0.2,1.3-0.3,1.9-0.3l-0.2,3c-0.9,0-1.7,0.1-2.5,0.4
			s-1.5,0.6-2.1,1.1c-0.8,0.6-1.3,1.2-1.8,2.1c-0.4,0.8-0.7,1.8-0.7,2.8v6.5h3.3v3L521.8,356.6L521.8,356.6z"/>
		<path class="st0" d="M544.3,356.6v-3h3.6v-12.5h-3.6v-3h6.7v15.5h3.5v3H544.3z M550.9,332.8c-0.4,0.4-0.9,0.6-1.4,0.6
			s-1-0.2-1.4-0.6c-0.4-0.4-0.7-0.9-0.7-1.5c0-0.6,0.2-1.1,0.7-1.5c0.4-0.4,0.9-0.6,1.4-0.6c0.5,0,1,0.2,1.4,0.6
			c0.4,0.4,0.6,0.9,0.6,1.5C551.6,331.9,551.3,332.4,550.9,332.8z"/>
		<path class="st0" d="M576.5,356.3c-1.2,0.5-2.5,0.8-3.8,0.8c-1.4,0-2.7-0.2-3.8-0.8c-1.2-0.5-2.2-1.2-3.1-2.1
			c-0.9-0.8-1.6-1.9-2.1-3c-0.5-1.2-0.8-2.4-0.8-3.8c0-1.3,0.2-2.6,0.8-3.7s1.2-2.2,2.1-3.1c0.9-0.9,1.9-1.5,3.1-2
			c1.2-0.5,2.5-0.8,3.8-0.8c1.3,0,2.6,0.2,3.8,0.8c1.2,0.5,2.2,1.2,3.1,2c0.9,0.9,1.6,1.9,2.1,3.1s0.8,2.4,0.8,3.7
			c0,1.3-0.2,2.6-0.8,3.8c-0.5,1.2-1.2,2.2-2.1,3C578.7,355.1,577.7,355.8,576.5,356.3z M570,353.5c0.8,0.3,1.7,0.5,2.6,0.5
			s1.8-0.2,2.6-0.5c0.8-0.3,1.5-0.8,2.1-1.5c0.6-0.6,1.1-1.2,1.4-2c0.3-0.8,0.5-1.7,0.5-2.6c0-0.9-0.2-1.8-0.5-2.6
			c-0.3-0.8-0.8-1.5-1.4-2.1c-0.6-0.6-1.3-1.1-2.1-1.4c-0.8-0.3-1.7-0.5-2.6-0.5s-1.8,0.2-2.6,0.5c-0.8,0.3-1.5,0.8-2,1.4
			c-0.6,0.6-1.1,1.3-1.5,2.1c-0.3,0.8-0.5,1.7-0.5,2.6c0,0.9,0.2,1.8,0.5,2.6c0.3,0.8,0.8,1.5,1.5,2
			C568.5,352.7,569.2,353.2,570,353.5z"/>
		<path class="st0" d="M590.8,356.6v-3h3.8v-12.5h-3.4v-3h6.1l0.2,2.6c0.1,0.7,0.1,1.1,0.1,1.1s0,0.4,0.1,1.1
			c0.4-0.8,0.9-1.5,1.5-2.2s1.2-1.2,1.9-1.6c0.7-0.5,1.4-0.8,2-1c0.7-0.2,1.3-0.3,1.9-0.3l-0.2,3c-0.9,0-1.7,0.1-2.5,0.4
			s-1.5,0.6-2.1,1.1c-0.8,0.6-1.3,1.2-1.8,2.1c-0.4,0.8-0.7,1.8-0.7,2.8v6.5h3.3v3L590.8,356.6L590.8,356.6z"/>
		<path class="st0" d="M623,356.4c-0.8,0.4-1.8,0.6-3,0.6c-1.1,0-2.2-0.1-3.3-0.4c-1.1-0.3-2-0.8-2.7-1.5v-4h2.8v2.2
			c0.5,0.3,1,0.5,1.5,0.5c0.5,0.1,1.1,0.1,1.8,0.1c0.4,0,0.7,0,1.1-0.2c0.4-0.1,0.7-0.3,1-0.5c0.2-0.2,0.4-0.5,0.6-0.8
			s0.2-0.7,0.2-1.2c0-0.7-0.2-1.3-0.6-1.7s-0.9-0.7-1.5-0.9c-0.6-0.3-1.3-0.5-2-0.7s-1.4-0.5-2.1-0.9c-0.6-0.4-1.2-0.9-1.6-1.5
			c-0.4-0.6-0.6-1.5-0.6-2.6c0-1,0.2-1.8,0.5-2.4s0.8-1.2,1.4-1.6c0.6-0.4,1.2-0.8,1.9-1c0.7-0.2,1.3-0.3,1.9-0.3
			c0.4,0,0.8,0,1.2,0.1c0.4,0.1,0.9,0.2,1.4,0.3c0.5,0.2,0.9,0.4,1.3,0.6c0.4,0.2,0.8,0.5,1.2,0.9v4h-2.8v-2.4
			c-0.3-0.2-0.7-0.3-1-0.4c-0.4-0.1-0.8-0.1-1.2-0.1c-0.4,0-0.7,0-1.1,0.2c-0.3,0.1-0.7,0.2-0.9,0.4c-0.2,0.2-0.4,0.5-0.5,0.8
			s-0.2,0.6-0.2,1c0,0.6,0.3,1,0.7,1.3c0.4,0.3,1,0.6,1.6,0.8c0.6,0.3,1.3,0.5,2,0.8c0.7,0.3,1.4,0.6,2,1c0.6,0.4,1.1,1,1.5,1.6
			c0.4,0.7,0.6,1.5,0.6,2.6c0,0.5-0.1,1.1-0.3,1.7c-0.2,0.7-0.5,1.3-1,1.9C624.4,355.5,623.8,356,623,356.4z"/>
	</g>
</g>
</svg>
