<?xml version="1.0" encoding="utf-8"?>
<!-- Generator: Adobe Illustrator 30.5.1, SVG Export Plug-In . SVG Version: 9.03 Build 0)  -->
<svg version="1.1" id="Layer_1" xmlns="http://www.w3.org/2000/svg" xmlns:xlink="http://www.w3.org/1999/xlink" x="0px" y="0px"
	 viewBox="0 0 553.4 184.1" style="enable-background:new 0 0 553.4 184.1;" xml:space="preserve">
<style type="text/css">
	.st0{fill:#FFFFFF;}
</style>
<g>
	<g>
		<path class="st0" d="M187.8,82c-0.8-3.2-2-6.2-3.5-9s-3.4-5.3-5.5-7.6c-2.1-2.3-4.5-4.3-7.1-5.9c-2.6-1.6-5.4-2.9-8.5-3.8
			c-3-0.9-6.2-1.4-9.5-1.4s-6.4,0.5-9.5,1.4s-5.8,2.1-8.4,3.8c-2.6,1.6-5,3.6-7.1,5.9c-2.1,2.3-4,4.8-5.5,7.6
			c-1.5,2.8-2.7,5.8-3.5,9s-1.2,6.6-1.2,10.1s0.4,6.9,1.2,10.1c0.8,3.2,2,6.2,3.5,9s3.3,5.3,5.5,7.6c2.1,2.3,4.5,4.3,7.1,5.9
			s5.4,2.9,8.4,3.8c3,0.9,6.2,1.4,9.5,1.4s6.5-0.5,9.5-1.4c3-0.9,5.8-2.1,8.5-3.8c2.6-1.6,5-3.6,7.1-5.9s4-4.8,5.5-7.6
			c1.5-2.8,2.7-5.8,3.5-9s1.2-6.6,1.2-10C189,88.6,188.6,85.2,187.8,82z M171.2,100.8c-0.9,2.7-2.2,5.2-3.9,7.2
			c-1.7,2.1-3.7,3.7-6,4.9s-4.9,1.8-7.7,1.8c-2.7,0-5.3-0.6-7.6-1.8c-2.3-1.2-4.3-2.8-5.9-4.9c-1.7-2.1-3-4.5-3.9-7.2
			s-1.4-5.6-1.4-8.7s0.5-6,1.4-8.8c0.9-2.7,2.3-5.2,3.9-7.2c1.7-2.1,3.7-3.7,5.9-4.9s4.8-1.8,7.6-1.8c2.7,0,5.3,0.6,7.6,1.8
			c2.3,1.2,4.3,2.8,6,4.9s3,4.5,3.9,7.2s1.4,5.7,1.4,8.8C172.6,95.1,172.1,98,171.2,100.8z"/>
		<path class="st0" d="M254.5,120.3c0-3.3-2.7-6-6.1-6l-2.4-9.5c-0.6-2.7-1.6-4.9-2.8-6.7c-1.2-1.7-2.7-3-4.3-3.8
			c1.9-0.9,3.6-1.9,5-3c1.5-1.1,2.7-2.4,3.7-3.8s1.8-3.1,2.3-4.9s0.8-4,0.8-6.5c0-2.7-0.5-5.3-1.6-7.8s-2.6-4.7-4.6-6.6
			c-2-1.9-4.5-3.4-7.5-4.5c-2.9-1.1-6.3-1.7-10.1-1.7h-38.5v5.7c0,4.2,3.4,7.5,7.5,7.5v46.5c-4.2,0-7.5,3.4-7.5,7.5v5.6h30.2v-7.1
			c0-3.4-2.7-6.1-6.1-6.1h-0.6V99.5h6.2c2,0,3.7,0.2,5.1,0.7c1.4,0.5,2.6,1.1,3.6,2.1c1,0.9,1.8,2.1,2.4,3.7s1,3.3,1.3,5.3l2.9,17.3
			h21.2L254.5,120.3z M232.6,81.7c-0.6,1.1-1.4,2-2.4,2.7c-1.1,0.7-2.3,1.2-3.8,1.6c-1.5,0.3-3.1,0.5-4.9,0.5h-9.6V68.9h9.6
			c3.9,0,6.9,0.8,8.9,2.4s3,3.8,3,6.6C233.4,79.3,233.1,80.6,232.6,81.7z"/>
		<path class="st0" d="M322.5,82.3c-0.8-3.1-2-6-3.5-8.7s-3.4-5.1-5.5-7.3c-2.1-2.2-4.6-4.1-7.2-5.6c-2.6-1.6-5.5-2.8-8.5-3.7
			s-6.2-1.3-9.6-1.3h-28v7.4c0,3.2,2.6,5.8,5.8,5.8v46.5c-3.2,0-5.8,2.6-5.8,5.8v7.3h28c3.3,0,6.5-0.4,9.6-1.3
			c3-0.9,5.9-2.1,8.5-3.7s5-3.5,7.2-5.7c2.1-2.2,4-4.7,5.5-7.4c1.5-2.7,2.7-5.6,3.5-8.7s1.2-6.3,1.2-9.7
			C323.8,88.6,323.3,85.4,322.5,82.3z M305.3,101.1c-1,2.8-2.3,5.3-4,7.4s-3.7,3.8-6,5s-4.7,1.8-7.3,1.8h-6.1V68.9h6.1
			c2.6,0,5,0.6,7.3,1.8c2.3,1.2,4.3,2.8,6,4.9s3,4.5,4,7.3s1.5,5.8,1.5,9.1C306.9,95.3,306.4,98.3,305.3,101.1z"/>
		<path class="st0" d="M383.2,115.3l-19.4-59.7h-19.2l-19.8,59.7c-3,0-5.4,2.4-5.4,5.4v7.7H347v-7.7c0-3-2.4-5.4-5.4-5.4h-1.9
			l2.9-10.5H365l2.9,10.5h-1.6c-2.9,0-5.3,2.4-5.3,5.3v7.9h27.6v-7.9C388.4,117.7,386.1,115.3,383.2,115.3z M346.2,92.5l7.3-23.7
			l7.4,23.7H346.2z"/>
		<g>
			<path class="st0" d="M466,122.3v7.3h-5.9h-15.5h-6.2v-7.3c0-3.3,2.6-5.9,5.9-5.9h15.9C463.4,116.4,466,119,466,122.3z"/>
			<path class="st0" d="M420,121.2v7.3h-27.6v-7.3c0-3.3,2.6-5.9,5.9-5.9h0.1V68.9c-3.3,0-5.9-2.6-5.9-5.9v-7.3h22l28.8,45.6v12.9
				c-1.4,0.2-2.7,0.8-3.7,1.7L414,76.1v39.3h0.2C417.3,115.3,420,118,420,121.2z"/>
			<path class="st0" d="M466,54.6v7.3c0,3.3-2.6,5.9-5.9,5.9l0,0h-15.5l0,0h-0.3c-3.3,0-5.9-2.6-5.9-5.9v-7.3
				C438.4,54.6,466,54.6,466,54.6z"/>
			<polygon class="st0" points="460.1,114 444.5,114 444.5,70.1 444.5,70.1 460.1,70.1 			"/>
		</g>
		<g>
			<path class="st0" d="M87.4,54.6h31.2v5.6c0,4.2-3.4,7.5-7.5,7.5h-0.2l0,0h-16l0,0c-4.2,0-7.5-3.4-7.5-7.5L87.4,54.6z"/>
			<rect x="94.9" y="70.1" class="st0" width="16" height="43.9"/>
			<path class="st0" d="M118.6,123.9v5.6H87.4v-5.6c0-4.2,3.4-7.5,7.5-7.5l0,0h16l0,0h0.2C115.2,116.4,118.6,119.7,118.6,123.9z"/>
		</g>
	</g>
	<polygon class="st0" points="0,0 0,184.1 77.3,184.1 77.3,161.3 21.2,161.3 21.2,22.8 532.2,22.8 532.2,161.3 476.1,161.3 
		476.1,184.1 553.4,184.1 553.4,0 	"/>
	<g>
		<path class="st0" d="M92.8,182.4c-1.7-0.9-3-2.2-4-3.8c-1-1.7-1.5-3.5-1.5-5.5c0-2.1,0.5-3.9,1.5-5.5c1-1.7,2.3-2.9,4-3.8
			c1.7-0.9,3.6-1.4,5.7-1.4c1.7,0,3.3,0.3,4.7,0.9s2.6,1.5,3.6,2.6l-2.5,2.4c-1.5-1.7-3.4-2.4-5.6-2.4c-1.4,0-2.7,0.3-3.9,0.9
			c-1.1,0.6-2,1.5-2.7,2.6c-0.6,1.1-0.9,2.4-0.9,3.8c0,1.4,0.3,2.7,0.9,3.8s1.5,2,2.7,2.6c1.1,0.6,2.4,0.9,3.9,0.9
			c2.2,0,4.1-0.8,5.6-2.5l2.5,2.4c-1,1.1-2.2,2-3.6,2.6s-3,0.9-4.7,0.9C96.5,183.8,94.6,183.3,92.8,182.4z"/>
		<path class="st0" d="M127.9,178.6h-10.5l-2.1,4.9h-4l9.5-21h3.8l9.5,21H130L127.9,178.6z M126.6,175.6l-4-9.2l-3.9,9.2H126.6z"/>
		<path class="st0" d="M157.6,174.5c0.7,0.9,1,2,1,3.3c0,1.8-0.7,3.2-2.1,4.2c-1.4,1-3.4,1.5-6.1,1.5H140v-21h9.8
			c2.5,0,4.4,0.5,5.7,1.5c1.4,1,2,2.3,2,4c0,1.1-0.2,2-0.7,2.7c-0.5,0.8-1.1,1.4-2,1.8C156,173,156.9,173.6,157.6,174.5z
			 M143.9,165.5v5.8h5.5c1.4,0,2.4-0.3,3.1-0.8c0.7-0.5,1.1-1.2,1.1-2.1s-0.4-1.7-1.1-2.2s-1.8-0.8-3.1-0.8L143.9,165.5L143.9,165.5
			z M154.7,177.4c0-2-1.5-3-4.5-3h-6.3v6.1h6.3C153.2,180.4,154.7,179.4,154.7,177.4z"/>
		<path class="st0" d="M166,162.5h3.9v21H166V162.5z"/>
		<path class="st0" d="M197.2,162.5v21H194l-11.6-14.2v14.2h-3.9v-21h3.2l11.6,14.2v-14.2H197.2z"/>
		<path class="st0" d="M221.6,180.2v3.3h-15.7v-21h15.3v3.3h-11.4v5.5h10.1v3.2h-10.1v5.8L221.6,180.2L221.6,180.2z"/>
		<path class="st0" d="M233.7,165.8h-7v-3.3h17.8v3.3h-7v17.7h-3.9L233.7,165.8L233.7,165.8z"/>
		<path class="st0" d="M262.5,162.5h9.2c2.2,0,4.2,0.5,5.9,1.3c1.7,0.9,3.1,2.1,4,3.7c0.9,1.6,1.4,3.4,1.4,5.5s-0.5,3.9-1.4,5.5
			s-2.3,2.8-4,3.7s-3.7,1.3-5.9,1.3h-9.2V162.5z M271.5,180.2c1.5,0,2.9-0.3,4.1-0.9c1.2-0.6,2.1-1.4,2.7-2.5s0.9-2.3,0.9-3.8
			c0-1.4-0.3-2.7-0.9-3.8s-1.5-1.9-2.7-2.5s-2.5-0.9-4.1-0.9h-5.1v14.4H271.5z"/>
		<path class="st0" d="M306.1,180.2v3.3h-15.7v-21h15.3v3.3h-11.4v5.5h10.1v3.2h-10.1v5.8L306.1,180.2L306.1,180.2z"/>
		<path class="st0" d="M339,178.6h-10.5l-2.1,4.9h-4l9.5-21h3.8l9.5,21h-4.1L339,178.6z M337.8,175.6l-4-9.2l-3.9,9.2H337.8z"/>
		<path class="st0" d="M368.5,162.5l-9.1,21h-3.8l-9.2-21h4.2l7,16.2l7-16.2H368.5z"/>
		<path class="st0" d="M377.5,182.4c-1.7-0.9-3-2.2-4-3.9S372,175,372,173s0.5-3.9,1.5-5.5c1-1.7,2.3-2.9,4-3.9
			c1.7-0.9,3.7-1.4,5.8-1.4c2.1,0,4.1,0.5,5.8,1.4c1.7,0.9,3,2.2,4,3.8c1,1.7,1.5,3.5,1.5,5.5c0,2.1-0.5,3.9-1.5,5.5
			c-1,1.7-2.3,2.9-4,3.8c-1.7,0.9-3.7,1.4-5.8,1.4C381.2,183.8,379.3,183.3,377.5,182.4z M387.1,179.4c1.1-0.6,2-1.5,2.6-2.6
			s0.9-2.4,0.9-3.8c0-1.4-0.3-2.7-0.9-3.8s-1.5-2-2.6-2.6s-2.4-0.9-3.8-0.9s-2.7,0.3-3.8,0.9c-1.1,0.6-2,1.5-2.6,2.6s-1,2.4-1,3.8
			c0,1.4,0.3,2.7,1,3.8c0.6,1.1,1.5,2,2.6,2.6s2.4,0.9,3.8,0.9C384.7,180.4,386,180,387.1,179.4z"/>
		<path class="st0" d="M406,182.4c-1.7-0.9-3-2.2-4-3.8c-1-1.7-1.5-3.5-1.5-5.5c0-2.1,0.5-3.9,1.5-5.5c1-1.7,2.3-2.9,4-3.8
			c1.7-0.9,3.6-1.4,5.7-1.4c1.7,0,3.3,0.3,4.7,0.9s2.6,1.5,3.6,2.6l-2.5,2.4c-1.5-1.7-3.4-2.4-5.6-2.4c-1.4,0-2.7,0.3-3.9,0.9
			c-1.2,0.6-2,1.5-2.7,2.6c-0.6,1.1-1,2.4-1,3.8c0,1.4,0.3,2.7,1,3.8c0.6,1.1,1.5,2,2.7,2.6c1.1,0.6,2.4,0.9,3.9,0.9
			c2.2,0,4.1-0.8,5.6-2.5l2.5,2.4c-1,1.1-2.2,2-3.6,2.6s-3,0.9-4.7,0.9C409.6,183.8,407.7,183.3,406,182.4z"/>
		<path class="st0" d="M441,178.6h-10.5l-2.1,4.9h-4l9.5-21h3.8l9.5,21h-4.1L441,178.6z M439.7,175.6l-4-9.2l-3.9,9.2H439.7z"/>
		<path class="st0" d="M455.2,165.8h-7v-3.3H466v3.3h-7v17.7h-3.9C455.2,183.5,455.2,165.8,455.2,165.8z"/>
	</g>
</g>
</svg>
